<svg width="600" height="337" viewBox="0 0 600 337" fill="none" xmlns="http://www.w3.org/2000/svg">
<g clip-path="url(#clip0_182_1777)">
<rect width="600" height="337" fill="white"/>
<path fill-rule="evenodd" clip-rule="evenodd" d="M349.359 36.9817C352.682 37.3757 355.947 34.8206 356.838 30.9945C357.785 26.9266 355.691 22.9624 352.16 22.1401C348.63 21.3178 345 23.9489 344.052 28.0168C343.161 31.8429 344.961 35.5773 348.115 36.6919L347.637 37.2029L349.563 37.6514L349.359 36.9817Z" fill="#FF2222"/>
<path d="M349.359 36.9817L349.393 36.6983L348.96 36.6469L349.086 37.0646L349.359 36.9817ZM348.115 36.6919L348.324 36.887L348.622 36.5683L348.21 36.4228L348.115 36.6919ZM347.637 37.2029L347.429 37.0078L347.091 37.3687L347.572 37.4808L347.637 37.2029ZM349.563 37.6514L349.498 37.9293L349.979 38.0414L349.836 37.5685L349.563 37.6514ZM356.56 30.9298C355.694 34.645 352.542 37.0717 349.393 36.6983L349.326 37.2651C352.822 37.6797 356.199 34.9963 357.116 31.0593L356.56 30.9298ZM352.096 22.418C355.437 23.1962 357.48 26.9771 356.56 30.9298L357.116 31.0593C358.09 26.8761 355.945 22.7285 352.225 21.8621L352.096 22.418ZM344.33 28.0815C345.251 24.1288 348.754 21.6398 352.096 22.418L352.225 21.8621C348.505 20.9958 344.748 23.7689 343.774 27.952L344.33 28.0815ZM348.21 36.4228C345.221 35.3665 343.465 31.7967 344.33 28.0815L343.774 27.952C342.857 31.889 344.701 35.7881 348.02 36.961L348.21 36.4228ZM347.845 37.3979L348.324 36.887L347.907 36.4969L347.429 37.0078L347.845 37.3979ZM349.628 37.3734L347.702 36.9249L347.572 37.4808L349.498 37.9293L349.628 37.3734ZM349.086 37.0646L349.29 37.7343L349.836 37.5685L349.633 36.8988L349.086 37.0646Z" fill="#262640"/>
<path d="M353.957 25.0558C354.066 25.515 354.415 25.8916 354.562 26.3411C354.652 26.6142 354.734 26.9034 354.748 27.1915C354.755 27.3503 354.78 27.5177 354.744 27.6741" stroke="white" stroke-width="0.428078" stroke-linecap="round"/>
<path d="M345.837 48.2176C345.886 48.3673 346.048 48.4485 346.197 48.3991C346.347 48.3496 346.428 48.1882 346.379 48.0386L345.837 48.2176ZM348.509 40.3361L348.791 40.3744L348.509 40.3361ZM345.75 45.261L346.027 45.328L345.75 45.261ZM348.29 37.5014C348.15 38.1007 348.174 38.5602 348.211 38.9902C348.248 39.418 348.293 39.799 348.226 40.2978L348.791 40.3744C348.869 39.801 348.815 39.3529 348.78 38.9417C348.745 38.5327 348.726 38.1434 348.846 37.6309L348.29 37.5014ZM345.472 45.194C345.332 45.7764 345.435 46.5486 345.556 47.1384C345.618 47.4407 345.688 47.7093 345.742 47.9024C345.769 47.999 345.793 48.077 345.809 48.1313C345.818 48.1584 345.824 48.1796 345.829 48.1942C345.831 48.2015 345.833 48.2071 345.835 48.2111C345.835 48.213 345.836 48.2146 345.836 48.2157C345.836 48.2162 345.836 48.2166 345.837 48.217C345.837 48.2171 345.837 48.2173 345.837 48.2174C345.837 48.2174 345.837 48.2175 345.837 48.2175C345.837 48.2176 345.837 48.2176 346.108 48.1281C346.379 48.0386 346.379 48.0386 346.379 48.0386C346.379 48.0386 346.379 48.0386 346.379 48.0386C346.379 48.0386 346.379 48.0386 346.379 48.0385C346.379 48.0384 346.379 48.0382 346.378 48.0378C346.378 48.0372 346.378 48.036 346.377 48.0345C346.376 48.0314 346.375 48.0267 346.373 48.0203C346.369 48.0075 346.363 47.9882 346.355 47.9631C346.339 47.9128 346.317 47.8393 346.291 47.7477C346.24 47.5642 346.174 47.3093 346.115 47.0237C345.995 46.4376 345.919 45.7762 346.027 45.328L345.472 45.194ZM348.226 40.2978C348.094 41.2671 347.582 41.9237 346.991 42.6307C346.408 43.3279 345.742 44.0802 345.472 45.194L346.027 45.328C346.26 44.3658 346.829 43.7138 347.429 42.9967C348.02 42.2894 348.636 41.5215 348.791 40.3744L348.226 40.2978Z" fill="#262640"/>
<g opacity="0.5" clip-path="url(#clip1_182_1777)">
<path d="M-3.0094 303.662C-3.00727 300.87 -1.89664 298.193 0.0783817 296.22C2.0534 294.246 4.7312 293.138 7.52324 293.138C10.3153 293.138 12.9931 294.246 14.9681 296.22C16.9431 298.193 18.0537 300.87 18.0559 303.662" fill="#F2F2F2"/>
<path d="M7.52319 303.662C7.4477 303.662 7.3753 303.632 7.32192 303.579C7.26854 303.526 7.23854 303.453 7.23853 303.378V297.827C7.23853 297.751 7.26852 297.679 7.3219 297.625C7.37529 297.572 7.44769 297.542 7.52319 297.542C7.59869 297.542 7.6711 297.572 7.72448 297.625C7.77787 297.679 7.80786 297.751 7.80786 297.827V303.378C7.80785 303.453 7.77785 303.526 7.72447 303.579C7.67108 303.632 7.59868 303.662 7.52319 303.662Z" fill="#CCCCCC"/>
<path d="M7.52313 301.755C7.45512 301.755 7.38934 301.731 7.33782 301.686L3.92186 298.755C3.89312 298.73 3.86946 298.701 3.85225 298.667C3.83504 298.634 3.82462 298.597 3.8216 298.56C3.81858 298.522 3.82301 298.485 3.83463 298.449C3.84626 298.413 3.86486 298.38 3.88935 298.351C3.91383 298.323 3.94373 298.3 3.97731 298.283C4.01089 298.266 4.04748 298.256 4.08498 298.253C4.12248 298.25 4.16014 298.255 4.19579 298.267C4.23144 298.279 4.26436 298.298 4.29267 298.323L7.70867 301.254C7.75281 301.292 7.78428 301.343 7.79885 301.399C7.81343 301.455 7.81041 301.515 7.7902 301.569C7.76999 301.624 7.73355 301.671 7.6858 301.704C7.63805 301.737 7.58129 301.755 7.52313 301.755Z" fill="#CCCCCC"/>
<path d="M29.4425 303.662C29.4446 300.87 30.5553 298.193 32.5303 296.22C34.5053 294.246 37.1831 293.138 39.9751 293.138C42.7672 293.138 45.445 294.246 47.42 296.22C49.395 298.193 50.5056 300.87 50.5078 303.662" fill="#F2F2F2"/>
<path d="M39.9752 303.662C39.8997 303.662 39.8273 303.632 39.7739 303.579C39.7205 303.526 39.6906 303.453 39.6906 303.378V297.827C39.6906 297.751 39.7205 297.679 39.7739 297.625C39.8273 297.572 39.8997 297.542 39.9752 297.542C40.0507 297.542 40.1231 297.572 40.1765 297.625C40.2299 297.679 40.2599 297.751 40.2599 297.827V303.378C40.2599 303.453 40.2299 303.526 40.1765 303.579C40.1231 303.632 40.0507 303.662 39.9752 303.662Z" fill="#CCCCCC"/>
<path d="M39.975 301.755C39.907 301.755 39.8412 301.731 39.7897 301.686L36.3737 298.755C36.3449 298.73 36.3212 298.701 36.304 298.667C36.2867 298.634 36.2763 298.597 36.2733 298.56C36.2702 298.522 36.2747 298.485 36.2863 298.449C36.2979 298.413 36.3165 298.38 36.341 298.351C36.3655 298.323 36.3954 298.299 36.429 298.282C36.4626 298.266 36.4993 298.255 36.5368 298.253C36.5743 298.25 36.612 298.255 36.6476 298.267C36.6833 298.279 36.7162 298.298 36.7445 298.323L40.1605 301.254C40.2047 301.292 40.2362 301.343 40.2507 301.399C40.2653 301.455 40.2623 301.515 40.2421 301.569C40.2219 301.624 40.1854 301.671 40.1377 301.704C40.0899 301.737 40.0332 301.755 39.975 301.755Z" fill="#CCCCCC"/>
<path d="M460.549 102.301C471.732 102.301 480.798 93.235 480.798 82.0519C480.798 70.8688 471.732 61.8032 460.549 61.8032C449.366 61.8032 440.301 70.8688 440.301 82.0519C440.301 93.235 449.366 102.301 460.549 102.301Z" fill="#F2F2F2"/>
<path d="M45.7566 326.264C55.923 326.264 64.1645 324.341 64.1645 321.969C64.1645 319.597 55.923 317.674 45.7566 317.674C35.5902 317.674 27.3486 319.597 27.3486 321.969C27.3486 324.341 35.5902 326.264 45.7566 326.264Z" fill="#F2F2F2"/>
<path d="M36.3598 145.653C41.1876 130.578 52.976 118.887 66.9563 111.933C83.5437 103.683 102.604 102.749 120.615 105.96C140.057 109.426 158.229 117.417 175.818 126.137C193.07 134.691 210.044 143.723 227.986 150.792C263.806 164.883 301.772 172.747 340.242 174.044C374.868 175.199 411.89 171.405 441.538 151.944C468.703 134.111 485.989 104.693 494.993 74.0279C496.145 70.102 497.17 66.1424 498.067 62.149C498.328 60.9955 496.554 60.503 496.291 61.6597C489.029 93.6819 473.543 125.331 447.082 145.743C418.463 167.821 380.903 172.925 345.755 172.341C306.864 171.662 268.386 164.236 232.035 150.396C213.632 143.389 196.265 134.292 178.677 125.508C161.475 116.918 143.79 108.877 124.875 104.915C107.602 101.297 89.1097 101.077 72.4565 107.514C58.7438 112.815 46.2407 122.264 38.9237 135.189C37.1396 138.357 35.6856 141.699 34.5848 145.164C34.2226 146.295 35.9994 146.779 36.3598 145.653Z" fill="#F2F2F2"/>
<path d="M299.166 286.607C299.328 286.607 299.484 286.543 299.599 286.428C299.715 286.313 299.779 286.156 299.779 285.994C299.779 285.831 299.715 285.675 299.599 285.56C299.484 285.445 299.328 285.38 299.166 285.38H293.336V282.926H299.166C299.328 282.926 299.484 282.861 299.599 282.746C299.715 282.631 299.779 282.475 299.779 282.312C299.779 282.149 299.715 281.993 299.599 281.878C299.484 281.763 299.328 281.698 299.166 281.698H249.464C249.301 281.698 249.145 281.763 249.03 281.878C248.915 281.993 248.85 282.149 248.85 282.312C248.85 282.475 248.915 282.631 249.03 282.746C249.145 282.861 249.301 282.926 249.464 282.926H255.293V285.38H249.464C249.301 285.38 249.145 285.445 249.03 285.56C248.915 285.675 248.85 285.831 248.85 285.994C248.85 286.156 248.915 286.313 249.03 286.428C249.145 286.543 249.301 286.607 249.464 286.607H255.293V289.062H249.464C249.301 289.062 249.145 289.126 249.03 289.241C248.915 289.356 248.85 289.513 248.85 289.675C248.85 289.838 248.915 289.994 249.03 290.109C249.145 290.224 249.301 290.289 249.464 290.289H255.293V292.743H250.078C249.752 292.743 249.44 292.873 249.21 293.103C248.98 293.333 248.85 293.645 248.85 293.97C248.85 294.296 248.98 294.608 249.21 294.838C249.44 295.068 249.752 295.198 250.078 295.198H255.043C255.007 295.296 254.988 295.4 254.986 295.504V304.095C254.986 304.339 255.083 304.573 255.256 304.746C255.429 304.918 255.663 305.015 255.907 305.015C256.151 305.015 256.385 304.918 256.558 304.746C256.73 304.573 256.827 304.339 256.827 304.095V295.504C256.826 295.4 256.807 295.296 256.771 295.198H291.859C291.822 295.296 291.803 295.4 291.802 295.504V304.095C291.802 304.339 291.899 304.573 292.072 304.746C292.245 304.918 292.479 305.015 292.723 305.015C292.967 305.015 293.201 304.918 293.374 304.746C293.546 304.573 293.643 304.339 293.643 304.095V295.504C293.642 295.4 293.623 295.296 293.587 295.198H298.552C298.877 295.198 299.19 295.068 299.42 294.838C299.65 294.608 299.779 294.296 299.779 293.97C299.779 293.645 299.65 293.333 299.42 293.103C299.19 292.873 298.877 292.743 298.552 292.743H293.336V290.289H299.166C299.328 290.289 299.484 290.224 299.599 290.109C299.715 289.994 299.779 289.838 299.779 289.675C299.779 289.513 299.715 289.356 299.599 289.241C299.484 289.126 299.328 289.062 299.166 289.062H293.336V286.607H299.166ZM256.52 282.926H292.109V285.38H256.52V282.926ZM292.109 292.743H256.52V290.289H292.109V292.743ZM292.109 289.062H256.52V286.607H292.109V289.062Z" fill="#3D3D5C"/>
<path d="M112.025 260.854C112.025 250.017 103.234 224.301 92.3902 224.301C81.546 224.301 72.755 250.017 72.755 260.854C72.755 266.061 74.8237 271.055 78.506 274.738C82.1883 278.42 87.1826 280.489 92.3902 280.489C97.5978 280.489 102.592 278.42 106.274 274.738C109.957 271.055 112.025 266.061 112.025 260.854Z" fill="#E6E6E6"/>
<path d="M107.117 260.854C107.117 250.017 98.3255 224.301 87.4813 224.301C76.6372 224.301 67.8462 250.017 67.8462 260.854C67.8462 266.061 69.9149 271.055 73.5972 274.738C77.2795 278.42 82.2738 280.489 87.4814 280.489C92.6889 280.489 97.6832 278.42 101.366 274.738C105.048 271.055 107.117 266.061 107.117 260.854Z" fill="#F2F2F2"/>
<path d="M88.0949 304.757C87.9322 304.757 87.7761 304.692 87.6611 304.577C87.546 304.462 87.4813 304.306 87.4813 304.143V249.447C87.4813 249.284 87.546 249.128 87.661 249.013C87.7761 248.898 87.9322 248.833 88.0949 248.833C88.2577 248.833 88.4137 248.898 88.5288 249.013C88.6439 249.128 88.7085 249.284 88.7085 249.447V304.143C88.7085 304.306 88.6439 304.462 88.5288 304.577C88.4137 304.692 88.2577 304.757 88.0949 304.757Z" fill="#CCCCCC"/>
<path d="M88.0949 258.413C87.9736 258.413 87.855 258.377 87.7541 258.31C87.6532 258.242 87.5746 258.147 87.5282 258.035C87.4817 257.922 87.4696 257.799 87.4932 257.68C87.5169 257.561 87.5753 257.452 87.6611 257.366L95.6855 249.341C95.8006 249.226 95.9566 249.161 96.1194 249.161C96.2821 249.161 96.4381 249.226 96.5532 249.341C96.6682 249.456 96.7329 249.612 96.7329 249.775C96.7329 249.938 96.6682 250.094 96.5532 250.209L88.5288 258.234C88.4719 258.291 88.4042 258.336 88.3298 258.367C88.2553 258.398 88.1755 258.413 88.0949 258.413Z" fill="#CCCCCC"/>
<path d="M313.899 304.757C313.737 304.757 313.58 304.692 313.465 304.577C313.35 304.462 313.286 304.306 313.286 304.143V249.447C313.286 249.284 313.35 249.128 313.465 249.013C313.58 248.898 313.737 248.833 313.899 248.833C314.062 248.833 314.218 248.898 314.333 249.013C314.448 249.128 314.513 249.284 314.513 249.447V304.143C314.513 304.306 314.448 304.462 314.333 304.577C314.218 304.692 314.062 304.757 313.899 304.757Z" fill="#3D3D5C"/>
<path d="M379.554 260.854C379.554 250.017 370.763 224.301 359.919 224.301C349.075 224.301 340.284 250.017 340.284 260.854C340.284 266.061 342.353 271.055 346.035 274.738C349.717 278.42 354.712 280.489 359.919 280.489C365.127 280.489 370.121 278.42 373.803 274.738C377.486 271.055 379.554 266.061 379.554 260.854Z" fill="#E6E6E6"/>
<path d="M374.645 260.854C374.645 250.017 365.854 224.301 355.01 224.301C344.166 224.301 335.375 250.017 335.375 260.854C335.375 266.061 337.444 271.055 341.126 274.738C344.808 278.42 349.803 280.489 355.01 280.489C360.218 280.489 365.212 278.42 368.894 274.738C372.577 271.055 374.645 266.061 374.645 260.854Z" fill="#F2F2F2"/>
<path d="M355.624 304.757C355.461 304.757 355.305 304.692 355.19 304.577C355.075 304.462 355.01 304.306 355.01 304.143V249.447C355.01 249.284 355.075 249.128 355.19 249.013C355.305 248.898 355.461 248.833 355.624 248.833C355.787 248.833 355.943 248.898 356.058 249.013C356.173 249.128 356.237 249.284 356.237 249.447V304.143C356.237 304.306 356.173 304.462 356.058 304.577C355.943 304.692 355.787 304.757 355.624 304.757Z" fill="#CCCCCC"/>
<path d="M355.624 258.413C355.503 258.413 355.384 258.377 355.283 258.31C355.182 258.242 355.103 258.147 355.057 258.035C355.011 257.922 354.998 257.799 355.022 257.68C355.046 257.561 355.104 257.452 355.19 257.366L363.214 249.341C363.329 249.226 363.486 249.161 363.648 249.161C363.811 249.161 363.967 249.226 364.082 249.341C364.197 249.456 364.262 249.612 364.262 249.775C364.262 249.938 364.197 250.094 364.082 250.209L356.058 258.234C356.001 258.291 355.933 258.336 355.859 258.367C355.784 258.398 355.704 258.413 355.624 258.413Z" fill="#CCCCCC"/>
<path d="M153.136 92.7899H143.319C142.587 92.7891 141.885 92.4979 141.367 91.9802C140.85 91.4626 140.558 90.7607 140.558 90.0287V67.3255C140.558 66.5935 140.85 65.8916 141.367 65.374C141.885 64.8563 142.587 64.5651 143.319 64.5643H153.136C153.868 64.5651 154.57 64.8563 155.088 65.374C155.606 65.8916 155.897 66.5935 155.898 67.3255V90.0287C155.897 90.7607 155.606 91.4626 155.088 91.9802C154.57 92.4979 153.868 92.7891 153.136 92.7899Z" fill="#E6E6E6"/>
<path d="M191.793 304.481H141.478C140.095 304.48 138.77 303.93 137.792 302.952C136.814 301.974 136.264 300.649 136.262 299.266V96.1647C136.264 94.7819 136.814 93.4562 137.792 92.4784C138.77 91.5007 140.095 90.9507 141.478 90.9491H191.793C193.176 90.9506 194.502 91.5006 195.479 92.4784C196.457 93.4562 197.007 94.7819 197.009 96.1647V299.266C197.007 300.649 196.457 301.974 195.479 302.952C194.502 303.93 193.176 304.48 191.793 304.481Z" fill="#E6E6E6"/>
<path d="M161.727 304.481H111.412C110.029 304.48 108.703 303.93 107.725 302.952C106.748 301.974 106.198 300.649 106.196 299.266V96.1647C106.198 94.7819 106.748 93.4562 107.725 92.4784C108.703 91.5007 110.029 90.9507 111.412 90.9491H161.727C163.109 90.9507 164.435 91.5007 165.413 92.4784C166.391 93.4562 166.941 94.7819 166.942 96.1647V299.266C166.941 300.649 166.391 301.974 165.413 302.952C164.435 303.93 163.109 304.48 161.727 304.481Z" fill="#F2F2F2"/>
<path d="M143.932 92.7899H134.115C133.383 92.7891 132.681 92.4979 132.163 91.9802C131.646 91.4626 131.354 90.7607 131.354 90.0287V67.3255C131.354 66.5935 131.646 65.8916 132.163 65.374C132.681 64.8563 133.383 64.5651 134.115 64.5643H143.932C144.664 64.5651 145.366 64.8563 145.884 65.374C146.402 65.8916 146.693 66.5935 146.694 67.3255V90.0287C146.693 90.7607 146.402 91.4626 145.884 91.9802C145.366 92.4979 144.664 92.7891 143.932 92.7899Z" fill="#F2F2F2"/>
<path d="M131.047 136.969H119.388C118.982 136.968 118.592 136.807 118.304 136.519C118.017 136.232 117.855 135.842 117.854 135.435V117.641C117.855 117.234 118.017 116.844 118.304 116.556C118.592 116.269 118.982 116.107 119.388 116.107H131.047C131.454 116.107 131.843 116.269 132.131 116.556C132.419 116.844 132.58 117.234 132.581 117.641V135.435C132.58 135.842 132.419 136.232 132.131 136.519C131.843 136.807 131.454 136.968 131.047 136.969Z" fill="white"/>
<path d="M153.75 136.969H142.092C141.685 136.968 141.295 136.807 141.007 136.519C140.72 136.232 140.558 135.842 140.558 135.435V117.641C140.558 117.234 140.72 116.844 141.007 116.556C141.295 116.269 141.685 116.107 142.092 116.107H153.75C154.157 116.107 154.547 116.269 154.834 116.556C155.122 116.844 155.284 117.234 155.284 117.641V135.435C155.284 135.842 155.122 136.232 154.834 136.519C154.547 136.807 154.157 136.968 153.75 136.969Z" fill="white"/>
<path d="M131.047 169.49H119.388C118.982 169.489 118.592 169.327 118.304 169.04C118.017 168.752 117.855 168.362 117.854 167.956V150.161C117.855 149.755 118.017 149.365 118.304 149.077C118.592 148.79 118.982 148.628 119.388 148.627H131.047C131.454 148.628 131.843 148.79 132.131 149.077C132.419 149.365 132.58 149.755 132.581 150.161V167.956C132.58 168.362 132.419 168.752 132.131 169.04C131.843 169.327 131.454 169.489 131.047 169.49Z" fill="white"/>
<path d="M153.75 169.49H142.092C141.685 169.489 141.295 169.327 141.007 169.04C140.72 168.752 140.558 168.362 140.558 167.956V150.161C140.558 149.755 140.72 149.365 141.007 149.077C141.295 148.79 141.685 148.628 142.092 148.627H153.75C154.157 148.628 154.547 148.79 154.834 149.077C155.122 149.365 155.284 149.755 155.284 150.161V167.956C155.284 168.362 155.122 168.752 154.834 169.04C154.547 169.327 154.157 169.489 153.75 169.49Z" fill="white"/>
<path d="M131.047 202.01H119.388C118.982 202.01 118.592 201.848 118.304 201.561C118.017 201.273 117.855 200.883 117.854 200.476V182.682C117.855 182.275 118.017 181.885 118.304 181.598C118.592 181.31 118.982 181.149 119.388 181.148H131.047C131.454 181.149 131.843 181.31 132.131 181.598C132.419 181.885 132.58 182.275 132.581 182.682V200.476C132.58 200.883 132.419 201.273 132.131 201.561C131.843 201.848 131.454 202.01 131.047 202.01Z" fill="white"/>
<path d="M153.75 202.01H142.092C141.685 202.01 141.295 201.848 141.007 201.561C140.72 201.273 140.558 200.883 140.558 200.476V182.682C140.558 182.275 140.72 181.885 141.007 181.598C141.295 181.31 141.685 181.149 142.092 181.148H153.75C154.157 181.149 154.547 181.31 154.834 181.598C155.122 181.885 155.284 182.275 155.284 182.682V200.476C155.284 200.883 155.122 201.273 154.834 201.561C154.547 201.848 154.157 202.01 153.75 202.01Z" fill="white"/>
<path d="M131.047 234.531H119.388C118.982 234.531 118.592 234.369 118.304 234.081C118.017 233.794 117.855 233.404 117.854 232.997V215.203C117.855 214.796 118.017 214.406 118.304 214.119C118.592 213.831 118.982 213.669 119.388 213.669H131.047C131.454 213.669 131.843 213.831 132.131 214.119C132.419 214.406 132.58 214.796 132.581 215.203V232.997C132.58 233.404 132.419 233.794 132.131 234.081C131.843 234.369 131.454 234.531 131.047 234.531Z" fill="white"/>
<path d="M153.75 234.531H142.092C141.685 234.531 141.295 234.369 141.007 234.081C140.72 233.794 140.558 233.404 140.558 232.997V215.203C140.558 214.796 140.72 214.406 141.007 214.119C141.295 213.831 141.685 213.669 142.092 213.669H153.75C154.157 213.669 154.547 213.831 154.834 214.119C155.122 214.406 155.284 214.796 155.284 215.203V232.997C155.284 233.404 155.122 233.794 154.834 234.081C154.547 234.369 154.157 234.531 153.75 234.531Z" fill="white"/>
<path d="M131.047 267.052H119.388C118.982 267.051 118.592 266.89 118.304 266.602C118.017 266.314 117.855 265.925 117.854 265.518V247.723C117.855 247.317 118.017 246.927 118.304 246.639C118.592 246.352 118.982 246.19 119.388 246.189H131.047C131.454 246.19 131.843 246.352 132.131 246.639C132.419 246.927 132.58 247.317 132.581 247.723V265.518C132.58 265.925 132.419 266.314 132.131 266.602C131.843 266.89 131.454 267.051 131.047 267.052Z" fill="white"/>
<path d="M153.75 267.052H142.092C141.685 267.051 141.295 266.89 141.007 266.602C140.72 266.314 140.558 265.925 140.558 265.518V247.723C140.558 247.317 140.72 246.927 141.007 246.639C141.295 246.352 141.685 246.19 142.092 246.189H153.75C154.157 246.19 154.547 246.352 154.834 246.639C155.122 246.927 155.284 247.317 155.284 247.723V265.518C155.284 265.925 155.122 266.314 154.834 266.602C154.547 266.89 154.157 267.051 153.75 267.052Z" fill="white"/>
<path d="M406.553 200.17H396.735C396.003 200.169 395.301 199.878 394.784 199.36C394.266 198.842 393.975 198.141 393.974 197.408V184.523C393.975 183.791 394.266 183.089 394.784 182.571C395.301 182.054 396.003 181.763 396.735 181.762H406.553C407.285 181.763 407.987 182.054 408.504 182.571C409.022 183.089 409.313 183.791 409.314 184.523V197.408C409.313 198.141 409.022 198.842 408.504 199.36C407.987 199.878 407.285 200.169 406.553 200.17Z" fill="#E6E6E6"/>
<path d="M489.388 305.095H439.073C437.69 305.093 436.365 304.543 435.387 303.566C434.409 302.588 433.859 301.262 433.858 299.879V202.317C433.859 200.934 434.409 199.609 435.387 198.631C436.365 197.653 437.69 197.103 439.073 197.102H489.388C490.771 197.103 492.097 197.653 493.075 198.631C494.052 199.609 494.602 200.934 494.604 202.317V299.879C494.602 301.262 494.052 302.588 493.075 303.566C492.097 304.543 490.771 305.093 489.388 305.095Z" fill="#E6E6E6"/>
<path d="M459.322 305.095H372.191C370.808 305.093 369.483 304.543 368.505 303.566C367.527 302.588 366.977 301.262 366.975 299.879V202.317C366.977 200.934 367.527 199.609 368.505 198.631C369.483 197.653 370.808 197.103 372.191 197.102H459.322C460.705 197.103 462.031 197.653 463.008 198.631C463.986 199.609 464.536 200.934 464.538 202.317V299.879C464.536 301.262 463.986 302.588 463.008 303.566C462.031 304.543 460.705 305.093 459.322 305.095Z" fill="#F2F2F2"/>
<path d="M397.349 200.17H387.531C386.799 200.169 386.097 199.878 385.579 199.36C385.062 198.842 384.771 198.141 384.77 197.408V184.523C384.771 183.791 385.062 183.089 385.579 182.571C386.097 182.054 386.799 181.763 387.531 181.762H397.349C398.081 181.763 398.782 182.054 399.3 182.571C399.818 183.089 400.109 183.791 400.11 184.523V197.408C400.109 198.141 399.818 198.842 399.3 199.36C398.782 199.878 398.081 200.169 397.349 200.17Z" fill="#F2F2F2"/>
<path d="M410.234 245.269H398.576C398.169 245.269 397.779 245.107 397.492 244.819C397.204 244.532 397.042 244.142 397.042 243.735V225.941C397.042 225.534 397.204 225.144 397.492 224.857C397.779 224.569 398.169 224.407 398.576 224.407H410.234C410.641 224.407 411.031 224.569 411.318 224.857C411.606 225.144 411.768 225.534 411.768 225.941V243.735C411.768 244.142 411.606 244.532 411.318 244.819C411.031 245.107 410.641 245.269 410.234 245.269Z" fill="white"/>
<path d="M432.937 245.269H421.279C420.872 245.269 420.482 245.107 420.195 244.819C419.907 244.532 419.745 244.142 419.745 243.735V225.941C419.745 225.534 419.907 225.144 420.195 224.857C420.482 224.569 420.872 224.407 421.279 224.407H432.937C433.344 224.407 433.734 224.569 434.021 224.857C434.309 225.144 434.471 225.534 434.471 225.941V243.735C434.471 244.142 434.309 244.532 434.021 244.819C433.734 245.107 433.344 245.269 432.937 245.269Z" fill="white"/>
<path d="M410.234 277.79H398.576C398.169 277.789 397.779 277.628 397.492 277.34C397.204 277.052 397.042 276.663 397.042 276.256V258.461C397.042 258.055 397.204 257.665 397.492 257.377C397.779 257.09 398.169 256.928 398.576 256.927H410.234C410.641 256.928 411.031 257.09 411.318 257.377C411.606 257.665 411.768 258.055 411.768 258.461V276.256C411.768 276.663 411.606 277.052 411.318 277.34C411.031 277.628 410.641 277.789 410.234 277.79Z" fill="white"/>
<path d="M432.937 277.79H421.279C420.872 277.789 420.482 277.628 420.195 277.34C419.907 277.052 419.745 276.663 419.745 276.256V258.461C419.745 258.055 419.907 257.665 420.195 257.377C420.482 257.09 420.872 256.928 421.279 256.927H432.937C433.344 256.928 433.734 257.09 434.021 257.377C434.309 257.665 434.471 258.055 434.471 258.461V276.256C434.471 276.663 434.309 277.052 434.021 277.34C433.734 277.628 433.344 277.789 432.937 277.79Z" fill="white"/>
<path d="M621.312 305.402H-20.3864C-20.5491 305.402 -20.7052 305.337 -20.8203 305.222C-20.9354 305.107 -21 304.951 -21 304.788C-21 304.625 -20.9354 304.469 -20.8203 304.354C-20.7052 304.239 -20.5491 304.175 -20.3864 304.175H621.312C621.475 304.175 621.631 304.239 621.746 304.354C621.861 304.469 621.926 304.625 621.926 304.788C621.926 304.951 621.861 305.107 621.746 305.222C621.631 305.337 621.475 305.402 621.312 305.402Z" fill="#E6E6E6"/>
<path d="M201.611 326.878H144.546C144.383 326.878 144.227 326.813 144.112 326.698C143.997 326.583 143.932 326.427 143.932 326.264C143.932 326.101 143.997 325.945 144.112 325.83C144.227 325.715 144.383 325.651 144.546 325.651H201.611C201.773 325.651 201.929 325.715 202.045 325.83C202.16 325.945 202.224 326.101 202.224 326.264C202.224 326.427 202.16 326.583 202.045 326.698C201.929 326.813 201.773 326.878 201.611 326.878Z" fill="#E6E6E6"/>
<path d="M343.352 326.878H286.287C286.124 326.878 285.968 326.813 285.853 326.698C285.738 326.583 285.674 326.427 285.674 326.264C285.674 326.101 285.738 325.945 285.853 325.83C285.968 325.715 286.124 325.651 286.287 325.651H343.352C343.515 325.651 343.671 325.715 343.786 325.83C343.901 325.945 343.965 326.101 343.965 326.264C343.965 326.427 343.901 326.583 343.786 326.698C343.671 326.813 343.515 326.878 343.352 326.878Z" fill="#E6E6E6"/>
<path d="M485.093 326.878H428.029C427.866 326.878 427.71 326.813 427.595 326.698C427.48 326.583 427.415 326.427 427.415 326.264C427.415 326.101 427.48 325.945 427.595 325.83C427.71 325.715 427.866 325.651 428.029 325.651H485.093C485.256 325.651 485.412 325.715 485.527 325.83C485.642 325.945 485.707 326.101 485.707 326.264C485.707 326.427 485.642 326.583 485.527 326.698C485.412 326.813 485.256 326.878 485.093 326.878Z" fill="#E6E6E6"/>
<path d="M234.131 260.854C234.131 250.017 225.34 224.301 214.496 224.301C203.652 224.301 194.861 250.017 194.861 260.854C194.861 266.061 196.93 271.055 200.612 274.738C204.294 278.42 209.289 280.489 214.496 280.489C219.704 280.489 224.698 278.42 228.38 274.738C232.063 271.055 234.131 266.061 234.131 260.854Z" fill="#E6E6E6"/>
<path d="M229.223 260.854C229.223 250.017 220.432 224.301 209.587 224.301C198.743 224.301 189.952 250.017 189.952 260.854C189.952 266.061 192.021 271.055 195.703 274.738C199.386 278.42 204.38 280.489 209.587 280.489C214.795 280.489 219.789 278.42 223.472 274.738C227.154 271.055 229.223 266.061 229.223 260.854Z" fill="#F2F2F2"/>
<path d="M210.201 304.757C210.038 304.757 209.882 304.692 209.767 304.577C209.652 304.462 209.587 304.306 209.587 304.143V249.447C209.587 249.284 209.652 249.128 209.767 249.013C209.882 248.898 210.038 248.833 210.201 248.833C210.364 248.833 210.52 248.898 210.635 249.013C210.75 249.128 210.815 249.284 210.815 249.447V304.143C210.815 304.306 210.75 304.462 210.635 304.577C210.52 304.692 210.364 304.757 210.201 304.757Z" fill="#CCCCCC"/>
<path d="M210.201 258.413C210.08 258.413 209.961 258.377 209.86 258.31C209.759 258.242 209.681 258.147 209.634 258.035C209.588 257.922 209.576 257.799 209.599 257.68C209.623 257.561 209.682 257.452 209.767 257.366L217.792 249.341C217.907 249.226 218.063 249.161 218.226 249.161C218.388 249.161 218.544 249.226 218.659 249.341C218.774 249.456 218.839 249.612 218.839 249.775C218.839 249.938 218.774 250.094 218.659 250.209L210.635 258.234C210.578 258.291 210.51 258.336 210.436 258.367C210.362 258.398 210.282 258.413 210.201 258.413Z" fill="#CCCCCC"/>
<path d="M547.68 260.854C547.68 250.017 538.889 224.301 528.045 224.301C517.201 224.301 508.41 250.017 508.41 260.854C508.41 266.061 510.479 271.055 514.161 274.738C517.843 278.42 522.838 280.489 528.045 280.489C533.253 280.489 538.247 278.42 541.929 274.738C545.612 271.055 547.68 266.061 547.68 260.854Z" fill="#E6E6E6"/>
<path d="M542.772 260.854C542.772 250.017 533.981 224.301 523.136 224.301C512.292 224.301 503.501 250.017 503.501 260.854C503.501 266.061 505.57 271.055 509.252 274.738C512.935 278.42 517.929 280.489 523.136 280.489C528.344 280.489 533.338 278.42 537.021 274.738C540.703 271.055 542.772 266.061 542.772 260.854Z" fill="#F2F2F2"/>
<path d="M523.75 304.757C523.587 304.757 523.431 304.692 523.316 304.577C523.201 304.462 523.136 304.306 523.136 304.143V249.447C523.136 249.284 523.201 249.128 523.316 249.013C523.431 248.898 523.587 248.833 523.75 248.833C523.913 248.833 524.069 248.898 524.184 249.013C524.299 249.128 524.363 249.284 524.363 249.447V304.143C524.363 304.306 524.299 304.462 524.184 304.577C524.069 304.692 523.913 304.757 523.75 304.757Z" fill="#CCCCCC"/>
<path d="M523.75 258.413C523.628 258.413 523.51 258.377 523.409 258.31C523.308 258.242 523.229 258.147 523.183 258.035C523.137 257.922 523.124 257.799 523.148 257.68C523.172 257.561 523.23 257.452 523.316 257.366L531.34 249.341C531.455 249.226 531.612 249.161 531.774 249.161C531.937 249.161 532.093 249.226 532.208 249.341C532.323 249.456 532.388 249.612 532.388 249.775C532.388 249.938 532.323 250.094 532.208 250.209L524.184 258.234C524.127 258.291 524.059 258.336 523.985 258.367C523.91 258.398 523.83 258.413 523.75 258.413Z" fill="#CCCCCC"/>
<path d="M320.649 267.665H307.149C306.743 267.665 306.353 267.503 306.065 267.216C305.778 266.928 305.616 266.538 305.615 266.131V252.632C305.616 252.226 305.778 251.836 306.065 251.548C306.353 251.26 306.743 251.099 307.149 251.098H320.649C321.055 251.099 321.445 251.26 321.733 251.548C322.021 251.836 322.182 252.226 322.183 252.632V266.131C322.182 266.538 322.021 266.928 321.733 267.216C321.445 267.503 321.055 267.665 320.649 267.665Z" fill="#3D3D5C"/>
<path d="M451.692 274.239C451.84 274.278 451.977 274.348 452.094 274.446C452.212 274.543 452.306 274.665 452.371 274.803C452.436 274.941 452.47 275.092 452.471 275.244C452.471 275.397 452.438 275.547 452.374 275.686L455.042 278.259L453.163 278.68L450.917 276.172C450.692 276.049 450.519 275.848 450.433 275.606C450.346 275.365 450.351 275.1 450.446 274.861C450.542 274.623 450.721 274.428 450.951 274.313C451.181 274.199 451.445 274.172 451.692 274.239Z" fill="#FFB8B8"/>
<path d="M455.444 281.008L452.153 277.92C452.107 277.877 452.071 277.826 452.046 277.769C452.02 277.712 452.007 277.651 452.006 277.588C452.004 277.526 452.016 277.464 452.039 277.406C452.062 277.349 452.096 277.296 452.14 277.252L452.812 276.571C452.892 276.49 452.999 276.441 453.112 276.434C453.225 276.426 453.337 276.459 453.428 276.528L456.186 278.636L457.907 274.463C457.974 274.298 458.075 274.149 458.203 274.025C458.331 273.901 458.483 273.804 458.649 273.741C458.816 273.678 458.994 273.65 459.172 273.658C459.35 273.667 459.524 273.711 459.684 273.79C459.936 273.912 460.142 274.112 460.27 274.361C460.399 274.61 460.443 274.894 460.396 275.17C460.084 277.068 458.193 279.578 457.093 280.905C456.942 281.085 456.74 281.215 456.513 281.276C456.286 281.337 456.046 281.326 455.825 281.245C455.684 281.192 455.554 281.111 455.444 281.008Z" fill="#2D2D86"/>
<path d="M453.597 278.012L451.174 274.498C451.143 274.452 451.131 274.396 451.141 274.342C451.151 274.288 451.182 274.24 451.227 274.209L451.325 274.142C451.347 274.127 451.372 274.116 451.399 274.11C451.425 274.104 451.453 274.104 451.48 274.109C451.507 274.114 451.532 274.124 451.555 274.139C451.578 274.153 451.598 274.173 451.613 274.195L454.036 277.71C454.052 277.732 454.063 277.757 454.068 277.784C454.074 277.811 454.074 277.838 454.069 277.865C454.064 277.892 454.054 277.917 454.04 277.94C454.025 277.963 454.006 277.983 453.983 277.998L453.886 278.065C453.84 278.097 453.785 278.108 453.731 278.098C453.676 278.089 453.629 278.058 453.597 278.012Z" fill="white"/>
<path d="M452.92 278.038L450.909 275.122C450.823 274.997 450.79 274.843 450.818 274.695C450.845 274.546 450.93 274.414 451.055 274.328L451.26 274.187L453.918 278.043L453.713 278.184C453.589 278.27 453.435 278.303 453.287 278.275C453.138 278.248 453.006 278.163 452.92 278.038Z" fill="#3D3D5C"/>
<path d="M453.163 303.214L451.9 303.069L452.067 298.151L453.725 298.342L453.163 303.214Z" fill="#FFB8B8"/>
<path d="M453.344 304.476L449.271 304.006L449.277 303.955C449.301 303.746 449.366 303.545 449.467 303.362C449.569 303.179 449.706 303.017 449.871 302.887C450.035 302.757 450.223 302.66 450.425 302.603C450.626 302.545 450.837 302.528 451.045 302.552L453.533 302.839L453.344 304.476Z" fill="#2F2E41"/>
<path d="M467.852 302.28L466.637 302.656L464.612 298.148L466.405 297.594L467.852 302.28Z" fill="#FFB8B8"/>
<path d="M468.526 303.363L464.609 304.573L464.593 304.523C464.531 304.323 464.51 304.112 464.529 303.904C464.548 303.695 464.609 303.492 464.707 303.307C464.805 303.122 464.938 302.957 465.099 302.824C465.261 302.69 465.447 302.589 465.647 302.527L468.04 301.788L468.526 303.363Z" fill="#2F2E41"/>
<path d="M451.753 302.081C451.625 302.041 451.517 301.953 451.452 301.835C451.388 301.718 451.371 301.579 451.407 301.45L452.168 292.685C452.204 292.285 452.329 291.898 452.536 291.554L457.145 283.905L461.27 284.646L461.297 284.657C463.301 285.885 465.081 291.838 466.802 297.595C467.07 298.49 467.347 299.416 467.617 300.301C467.667 300.427 467.666 300.568 467.614 300.694C467.561 300.819 467.462 300.919 467.337 300.973L466.088 301.498C465.97 301.549 465.837 301.553 465.716 301.51C465.594 301.468 465.493 301.382 465.432 301.269L459.011 289.515C459.003 289.5 458.992 289.487 458.978 289.478C458.964 289.469 458.948 289.463 458.931 289.461C458.915 289.459 458.898 289.461 458.883 289.467C458.867 289.473 458.853 289.483 458.842 289.496L455.116 293.712L453.747 301.747L453.742 301.765C453.692 301.88 453.603 301.973 453.49 302.027C453.377 302.081 453.249 302.093 453.128 302.06L451.785 302.086L451.777 302.086L451.753 302.081Z" fill="#2F2E41"/>
<path d="M456.922 284.743L456.896 284.735L456.888 284.708C456.869 284.645 454.984 278.265 456.683 274.198L456.684 274.194C456.734 274.097 457.919 271.82 459.296 271.592L459.333 271.586L459.78 272.423C459.921 272.564 462.344 275.08 461.244 279.403C461.343 279.758 462.681 284.625 461.953 285.353C461.688 285.536 461.366 285.617 461.045 285.58C459.643 285.46 458.26 285.179 456.922 284.743Z" fill="#2D2D86"/>
<path d="M459.012 270.795C460.788 270.795 462.228 269.355 462.228 267.579C462.228 265.804 460.788 264.364 459.012 264.364C457.237 264.364 455.797 265.804 455.797 267.579C455.797 269.355 457.237 270.795 459.012 270.795Z" fill="#2F2E41"/>
<path d="M457.735 270.78C459.142 270.78 460.282 269.639 460.282 268.232C460.282 266.825 459.142 265.685 457.735 265.685C456.328 265.685 455.188 266.825 455.188 268.232C455.188 269.639 456.328 270.78 457.735 270.78Z" fill="#FFB8B8"/>
<path d="M459.374 270.707C459.142 270.789 458.857 270.862 458.674 270.691C458.598 270.592 458.553 270.473 458.546 270.349C458.539 270.224 458.569 270.101 458.633 269.994C458.765 269.784 458.872 269.559 458.952 269.324C458.976 269.148 458.953 268.968 458.887 268.803C458.821 268.637 458.713 268.492 458.573 268.381C458.297 268.17 457.984 268.013 457.651 267.916L455.867 267.282C455.404 267.173 454.992 266.907 454.703 266.528C454.554 266.213 454.529 265.853 454.632 265.52C454.734 265.187 454.958 264.905 455.259 264.728C455.562 264.575 455.895 264.492 456.234 264.486C456.573 264.479 456.91 264.549 457.218 264.689C457.558 264.848 457.907 264.988 458.263 265.107C458.977 265.296 459.789 265.127 460.416 265.529C460.681 265.73 460.891 265.994 461.028 266.297C461.164 266.6 461.222 266.933 461.197 267.264C461.143 267.93 460.966 268.581 460.673 269.182C460.537 269.553 460.34 269.898 460.091 270.204C459.969 270.354 459.813 270.471 459.635 270.548C459.458 270.624 459.265 270.657 459.073 270.643L459.374 270.707Z" fill="#2F2E41"/>
<path d="M461.709 268.098C462.855 268.098 463.784 267.169 463.784 266.024C463.784 264.878 462.855 263.949 461.709 263.949C460.564 263.949 459.635 264.878 459.635 266.024C459.635 267.169 460.564 268.098 461.709 268.098Z" fill="#2F2E41"/>
<path d="M458.286 269.032C458.286 268.994 458.297 268.957 458.316 268.925C458.335 268.892 458.363 268.866 458.396 268.848C458.429 268.831 458.467 268.822 458.504 268.824C458.542 268.826 458.578 268.838 458.61 268.859C458.641 268.88 458.666 268.909 458.682 268.943C458.698 268.978 458.704 269.015 458.7 269.053C458.696 269.09 458.682 269.126 458.66 269.156C458.637 269.186 458.607 269.209 458.572 269.224V269.68C458.572 269.69 458.57 269.7 458.566 269.71C458.562 269.719 458.556 269.728 458.549 269.735C458.542 269.743 458.533 269.748 458.524 269.752C458.514 269.756 458.504 269.758 458.494 269.758C458.484 269.758 458.473 269.756 458.464 269.752C458.454 269.748 458.446 269.743 458.439 269.735C458.431 269.728 458.426 269.719 458.422 269.71C458.418 269.7 458.416 269.69 458.416 269.68V269.224C458.378 269.208 458.345 269.182 458.322 269.147C458.299 269.113 458.286 269.073 458.286 269.032Z" fill="white"/>
<path d="M451.819 276.417C451.97 276.402 452.124 276.42 452.267 276.47C452.411 276.521 452.542 276.602 452.651 276.709C452.76 276.816 452.845 276.945 452.898 277.087C452.952 277.23 452.974 277.383 452.962 277.535L456.359 279.017L454.745 280.067L451.766 278.499C451.512 278.462 451.28 278.333 451.114 278.137C450.949 277.941 450.861 277.691 450.867 277.434C450.874 277.178 450.974 276.932 451.15 276.745C451.325 276.557 451.563 276.44 451.819 276.417Z" fill="#FFB8B8"/>
<path d="M457.694 281.453L453.533 279.706C453.476 279.682 453.424 279.646 453.38 279.602C453.336 279.557 453.302 279.505 453.279 279.447C453.257 279.389 453.246 279.327 453.247 279.264C453.249 279.202 453.263 279.141 453.288 279.084L453.681 278.212C453.728 278.108 453.81 278.025 453.914 277.978C454.017 277.932 454.134 277.924 454.243 277.957L457.563 278.971L457.721 274.46C457.727 274.282 457.77 274.107 457.846 273.946C457.923 273.785 458.032 273.642 458.166 273.525C458.3 273.408 458.457 273.319 458.626 273.265C458.796 273.211 458.975 273.192 459.152 273.21C459.431 273.236 459.694 273.352 459.901 273.541C460.108 273.729 460.249 273.98 460.301 274.255C460.67 276.143 459.772 279.155 459.203 280.782C459.126 281.003 458.981 281.196 458.789 281.332C458.598 281.468 458.369 281.542 458.134 281.542C457.983 281.542 457.833 281.512 457.694 281.453Z" fill="#2D2D86"/>
<path d="M31.0287 280.385H24.6559V278.451C26.6697 277.049 28.4539 277.171 30.8011 278.564L31.0287 280.385Z" fill="#2D2D86"/>
<path d="M23.1802 314.748H21.7849L21.5763 309.367H23.1802V314.748Z" fill="#FFB8B8"/>
<path d="M23.5359 316.101L19.0374 316.1V316.043C19.0374 315.813 19.0826 315.586 19.1706 315.373C19.2586 315.161 19.3876 314.968 19.5502 314.805C19.7128 314.643 19.9058 314.514 20.1183 314.426C20.3307 314.338 20.5584 314.292 20.7883 314.292L23.536 314.293L23.5359 316.101Z" fill="#2F2E41"/>
<path d="M31.0387 314.748H32.4334L32.642 309.367H31.0381L31.0387 314.748Z" fill="#FFB8B8"/>
<path d="M30.6826 314.293L33.4302 314.292C33.6601 314.292 33.8879 314.338 34.1004 314.426C34.3128 314.514 34.5058 314.643 34.6684 314.805C34.831 314.968 34.96 315.161 35.048 315.373C35.136 315.586 35.1813 315.813 35.1813 316.043V316.1L30.6827 316.101L30.6826 314.293Z" fill="#2F2E41"/>
<path d="M31.0752 314.058C30.9588 314.058 30.8459 314.018 30.7551 313.945C30.6643 313.873 30.6008 313.771 30.5751 313.658L27.1172 298.575C27.1096 298.536 27.0887 298.502 27.0582 298.477C27.0277 298.453 26.9896 298.44 26.9505 298.441H26.9497C26.9105 298.44 26.8723 298.453 26.8418 298.478C26.8114 298.503 26.7908 298.538 26.7835 298.576L23.608 313.558C23.5832 313.672 23.52 313.775 23.4289 313.849C23.3378 313.922 23.2242 313.963 23.107 313.963H21.5943C21.5245 313.963 21.4554 313.949 21.3913 313.921C21.3272 313.894 21.2695 313.853 21.2216 313.803C21.1737 313.752 21.1368 313.692 21.1129 313.626C21.0891 313.561 21.0789 313.491 21.083 313.421L22.2098 294.433L22.6632 294.299L22.6717 294.299L31.5774 294.377L33.4742 313.344C33.4808 313.412 33.4739 313.48 33.4539 313.545C33.4338 313.61 33.401 313.67 33.3574 313.722C33.3138 313.774 33.2603 313.817 33.1999 313.849C33.1395 313.88 33.0735 313.899 33.0057 313.904L31.1162 314.057C31.1024 314.058 31.0888 314.058 31.0752 314.058Z" fill="#2F2E41"/>
<path d="M27.3975 276.918C28.9411 276.918 30.1925 275.667 30.1925 274.123C30.1925 272.579 28.9411 271.328 27.3975 271.328C25.8538 271.328 24.6024 272.579 24.6024 274.123C24.6024 275.667 25.8538 276.918 27.3975 276.918Z" fill="#FFB8B8"/>
<path d="M25.6851 296.515C25.1948 296.521 24.7064 296.452 24.2368 296.311C23.8191 296.185 23.4316 295.975 23.0981 295.693C22.7646 295.412 22.4923 295.066 22.2978 294.675C22.2362 294.558 22.2225 294.421 22.2597 294.293C22.5679 293.241 24.0576 287.772 23.1071 283.425C22.973 282.821 22.9618 282.196 23.0743 281.588C23.1869 280.98 23.4207 280.4 23.762 279.884C24.0954 279.372 24.5285 278.933 25.0354 278.592C25.5423 278.251 26.1127 278.015 26.7126 277.9C26.8702 277.869 27.0287 277.844 27.1836 277.824C27.8467 277.743 28.5196 277.809 29.1542 278.018C29.7888 278.226 30.3695 278.573 30.8545 279.032C31.354 279.501 31.7438 280.074 31.9959 280.71C32.2481 281.347 32.3563 282.032 32.313 282.715L31.5825 294.437C31.5775 294.525 31.5497 294.61 31.5019 294.684C31.454 294.757 31.3878 294.818 31.3097 294.858C30.4684 295.299 27.9412 296.515 25.6851 296.515Z" fill="#3D3D5C"/>
<path d="M30.5549 272.066C30.2646 271.336 29.7327 270.728 29.0482 270.343C28.3636 269.958 27.5678 269.82 26.7935 269.951L27.6748 270.663C26.5798 270.7 25.4273 270.621 24.6455 271.389C24.8944 271.382 25.2206 271.914 25.4695 271.907C25.2365 271.924 25.0123 272.002 24.8201 272.135C24.6279 272.267 24.4747 272.449 24.3766 272.661C24.1863 273.09 24.1418 273.57 24.2499 274.026C24.5319 274.698 24.8599 275.35 25.2316 275.977C25.1991 274.865 27.388 272.213 28.4569 272.49C27.9138 272.691 27.4426 273.049 27.1026 273.518C27.8298 273.151 28.6522 273.016 29.4584 273.133C29.6425 273.175 29.8324 273.185 30.02 273.164C30.135 273.141 30.2423 273.089 30.3315 273.013C30.4208 272.937 30.489 272.84 30.5298 272.73C30.5706 272.62 30.5825 272.501 30.5644 272.386C30.5463 272.27 30.4988 272.161 30.4265 272.068L30.5549 272.066Z" fill="#2F2E41"/>
<path d="M25.4926 295.811C25.422 295.811 25.3522 295.796 25.2876 295.768L19.9844 293.453C19.8717 293.405 19.7803 293.317 19.7269 293.207C19.6736 293.097 19.6618 292.971 19.6938 292.852L23.2046 279.59C23.2698 279.343 23.3837 279.112 23.5394 278.91C23.6951 278.708 23.8897 278.538 24.1116 278.412C24.3335 278.286 24.5783 278.206 24.8318 278.175C25.0852 278.145 25.3422 278.165 25.5876 278.236L26.9914 278.636L26.0032 295.329C25.9981 295.411 25.9732 295.491 25.9307 295.562C25.8882 295.632 25.8293 295.692 25.7589 295.735C25.6789 295.784 25.5867 295.811 25.4926 295.811Z" fill="#2D2D86"/>
<path d="M35.3076 292.852L35.0743 291.972L34.7363 290.693L34.5736 290.08L34.2356 288.804L31.7969 279.59C31.7318 279.343 31.6181 279.112 31.4624 278.909C31.3067 278.707 31.1122 278.538 30.8902 278.412C30.6682 278.285 30.4233 278.205 30.1698 278.175C29.9163 278.144 29.6593 278.165 29.4139 278.236L28.0107 278.636L28.706 290.377L28.7778 291.603L28.8233 292.375V292.376L28.8961 293.595L28.9986 295.328C29.0069 295.459 29.0643 295.581 29.1591 295.67C29.2539 295.76 29.3791 295.81 29.5095 295.811C29.58 295.811 29.6497 295.796 29.7144 295.768L35.0174 293.453C35.1301 293.405 35.2216 293.317 35.2749 293.207C35.3283 293.096 35.3399 292.97 35.3076 292.852Z" fill="#2D2D86"/>
<path d="M34.5735 290.08L28.7775 291.603L28.7057 290.377L34.2354 288.804L34.5735 290.08Z" fill="#CCCCCC"/>
<path d="M35.0743 291.973L28.896 293.596L28.823 292.376V292.375L34.7362 290.693L35.0743 291.973Z" fill="#CCCCCC"/>
<path d="M26.2244 290.641L26.1526 291.844L20.4683 290.151L20.8014 288.892L26.2244 290.641Z" fill="#CCCCCC"/>
<path d="M26.1059 292.636L20.3056 290.764L19.9718 292.026L26.0354 293.832L26.1059 292.636Z" fill="#CCCCCC"/>
<path d="M20.4064 293.894C20.5793 293.849 20.7402 293.766 20.8778 293.652C21.0154 293.538 21.1263 293.395 21.2028 293.234C21.2792 293.072 21.3192 292.896 21.3201 292.717C21.321 292.538 21.2827 292.362 21.2079 292.199L23.9348 283.639L22.0012 283.234L19.5011 291.627C19.2368 291.771 19.0343 292.006 18.9321 292.289C18.83 292.572 18.8352 292.883 18.9468 293.162C19.0584 293.442 19.2686 293.671 19.5376 293.805C19.8066 293.94 20.1157 293.972 20.4064 293.894Z" fill="#FFB8B8"/>
<path d="M24.0105 279.43C24.5658 279.487 24.8781 280.111 24.74 280.888L24.0776 284.618C24.0279 284.898 23.7978 285.12 23.6065 285.072L21.3657 284.512C21.1933 284.468 21.1298 284.223 21.2275 283.978L22.5727 280.604C22.6637 280.285 22.8503 280.001 23.1074 279.791C23.3645 279.581 23.6796 279.455 24.0105 279.43Z" fill="#3D3D5C"/>
<path d="M27.3871 268.891C28.3331 268.892 29.2419 269.26 29.921 269.918C30.6002 270.577 30.9964 271.474 31.0258 272.419H31.7115C31.7719 272.419 31.8298 272.443 31.8724 272.486C31.9151 272.529 31.9391 272.587 31.9391 272.647V273.557C31.9391 273.618 31.9151 273.676 31.8724 273.718C31.8298 273.761 31.7719 273.785 31.7115 273.785H23.9731C23.9127 273.785 23.8548 273.761 23.8121 273.718C23.7695 273.676 23.7455 273.618 23.7455 273.557V272.533C23.7455 272.055 23.8397 271.581 24.0227 271.14C24.2057 270.698 24.4739 270.296 24.8121 269.958C25.1502 269.62 25.5517 269.352 25.9935 269.169C26.4353 268.986 26.9089 268.891 27.3871 268.891Z" fill="#2D2D86"/>
<path d="M27.8222 291.402H26.2136C26.162 291.402 26.1121 291.383 26.0739 291.348C26.0357 291.313 26.0118 291.266 26.0069 291.214L25.6849 287.914H28.3509L28.0289 291.214C28.024 291.266 28.0001 291.313 27.9619 291.348C27.9237 291.383 27.8738 291.402 27.8222 291.402Z" fill="#E6E6E6"/>
<path d="M28.3465 288.329H25.6892C25.6341 288.329 25.5814 288.307 25.5424 288.268C25.5035 288.229 25.4816 288.177 25.4816 288.121V287.623C25.4816 287.568 25.5035 287.515 25.5424 287.477C25.5814 287.438 25.6341 287.416 25.6892 287.416H28.3465C28.4016 287.416 28.4544 287.438 28.4933 287.477C28.5322 287.515 28.5541 287.568 28.5542 287.623V288.121C28.5541 288.177 28.5322 288.229 28.4933 288.268C28.4544 288.307 28.4016 288.329 28.3465 288.329Z" fill="#CCCCCC"/>
<path d="M27.0524 289.632C27.115 289.639 27.1769 289.651 27.2375 289.668L31.5216 285.994L31.2712 284.646L33.2562 284.002L33.9315 286.346C33.986 286.535 33.9777 286.737 33.9077 286.921C33.8378 287.105 33.7099 287.262 33.5435 287.367L28.1178 290.8C28.1216 291.043 28.0515 291.281 27.9168 291.483C27.7821 291.684 27.5892 291.84 27.3637 291.93C27.1382 292.019 26.8908 292.038 26.6544 291.983C26.4181 291.929 26.204 291.803 26.0405 291.624C25.8771 291.445 25.7721 291.22 25.7396 290.98C25.707 290.739 25.7484 290.495 25.8583 290.278C25.9681 290.062 26.1412 289.884 26.3545 289.769C26.5678 289.653 26.8112 289.606 27.0524 289.632Z" fill="#FFB8B8"/>
<path d="M31.5328 279.738C32.1259 279.572 32.7185 280.024 32.917 280.793L33.87 284.483C33.9414 284.76 33.8027 285.054 33.586 285.085L31.0475 285.45C30.8521 285.478 30.68 285.278 30.6729 285.014L30.5743 281.382C30.5366 281.042 30.6094 280.698 30.7819 280.402C30.9545 280.106 31.2178 279.873 31.5328 279.738Z" fill="#3D3D5C"/>
<path d="M60.3875 289.723H58.4548C58.3928 289.723 58.333 289.7 58.287 289.658C58.2411 289.617 58.2124 289.559 58.2066 289.497L57.8197 285.532H61.0226L60.6358 289.497C60.63 289.559 60.6013 289.616 60.5553 289.658C60.5094 289.7 60.4495 289.723 60.3875 289.723Z" fill="#E6E6E6"/>
<path d="M61.0174 286.031H57.8248C57.7586 286.031 57.6952 286.005 57.6485 285.958C57.6017 285.911 57.5754 285.848 57.5753 285.782V285.183C57.5754 285.117 57.6017 285.053 57.6485 285.007C57.6952 284.96 57.7586 284.934 57.8248 284.934H61.0174C61.0836 284.934 61.147 284.96 61.1937 285.007C61.2405 285.053 61.2668 285.117 61.2669 285.183V285.782C61.2668 285.848 61.2405 285.911 61.1937 285.958C61.147 286.005 61.0836 286.031 61.0174 286.031Z" fill="#CCCCCC"/>
<path d="M79.3754 313.009C77.9712 311.141 76.8611 309.069 76.0837 306.865C76.0387 306.734 76.0419 306.59 76.0928 306.46C76.1436 306.331 76.2389 306.223 76.3615 306.157L81.1667 303.583C81.2444 303.541 81.3307 303.517 81.419 303.513C81.5073 303.51 81.5952 303.526 81.6761 303.562C81.7585 303.598 81.8316 303.652 81.8899 303.72C81.9482 303.788 81.9902 303.869 82.0126 303.956C82.5719 306.08 83.6232 308.042 85.0815 309.684C85.1415 309.75 85.1855 309.83 85.2101 309.917C85.2347 310.003 85.2392 310.094 85.2234 310.182C85.2082 310.269 85.1733 310.352 85.1214 310.423C85.0696 310.495 85.0021 310.553 84.9241 310.595L80.1189 313.17C79.996 313.235 79.8538 313.255 79.7176 313.225C79.5815 313.196 79.4602 313.119 79.3754 313.009Z" fill="#CCCCCC"/>
<path d="M79.7032 312.762C79.7291 312.795 79.7654 312.817 79.8059 312.825C79.8463 312.833 79.8885 312.827 79.925 312.808L84.7302 310.233C84.7536 310.221 84.7738 310.204 84.7892 310.182C84.8047 310.161 84.8151 310.137 84.8195 310.111C84.8245 310.083 84.8231 310.055 84.8154 310.028C84.8076 310.002 84.7938 309.977 84.775 309.956C83.2738 308.266 82.1915 306.246 81.6158 304.06C81.6091 304.033 81.5963 304.008 81.5783 303.987C81.5603 303.966 81.5377 303.949 81.5121 303.938C81.488 303.927 81.4618 303.922 81.4355 303.923C81.4091 303.924 81.3834 303.931 81.3603 303.944L76.5552 306.519C76.5188 306.538 76.4904 306.57 76.4749 306.609C76.4594 306.647 76.4579 306.69 76.4704 306.729C77.2339 308.893 78.3241 310.928 79.7032 312.762Z" fill="white"/>
<path d="M81.4821 307.257L78.865 308.412C78.7655 308.456 78.6526 308.459 78.5512 308.419C78.4498 308.38 78.3682 308.302 78.3241 308.203L78.2594 308.056C78.2156 307.957 78.2131 307.844 78.2524 307.742C78.2916 307.641 78.3696 307.559 78.469 307.515L81.0861 306.36C81.1856 306.316 81.2985 306.314 81.3999 306.353C81.5013 306.392 81.583 306.47 81.627 306.57L81.6917 306.716C81.7355 306.816 81.7381 306.929 81.6988 307.03C81.6595 307.131 81.5816 307.213 81.4821 307.257Z" fill="#CCCCCC"/>
<path d="M82.4392 309.034L79.822 310.19C79.7225 310.234 79.6097 310.236 79.5083 310.197C79.4069 310.157 79.3252 310.08 79.2812 309.98L79.2164 309.833C79.1726 309.734 79.1701 309.621 79.2094 309.52C79.2487 309.418 79.3266 309.337 79.426 309.293L82.0431 308.137C82.1427 308.094 82.2555 308.091 82.3569 308.13C82.4583 308.17 82.54 308.248 82.584 308.347L82.6488 308.494C82.6926 308.593 82.6951 308.706 82.6558 308.807C82.6165 308.909 82.5386 308.99 82.4392 309.034Z" fill="#CCCCCC"/>
<path d="M76.3012 307.553C76.1206 307.437 75.9677 307.283 75.8532 307.101C75.7387 306.92 75.6654 306.715 75.6386 306.502C75.6117 306.289 75.6318 306.073 75.6976 305.868C75.7634 305.664 75.8732 305.476 76.0192 305.319L74.9155 289.656L78.0948 289.964L78.1821 305.303C78.4302 305.566 78.5733 305.911 78.5842 306.272C78.5951 306.634 78.473 306.986 78.2412 307.264C78.0093 307.541 77.6838 307.724 77.3262 307.777C76.9687 307.831 76.604 307.751 76.3012 307.553Z" fill="#A0616A"/>
<path d="M75.6352 294.919C75.5607 294.865 75.4992 294.796 75.4552 294.715C75.4112 294.635 75.3859 294.546 75.381 294.454L75.1481 290.233C75.125 289.814 75.2576 289.402 75.5203 289.076C75.783 288.75 76.1572 288.532 76.5708 288.466C76.9843 288.399 77.4079 288.488 77.7598 288.715C78.1118 288.942 78.3672 289.291 78.4768 289.696L79.5001 293.47C79.5426 293.627 79.5209 293.795 79.4398 293.937C79.3587 294.078 79.2247 294.182 79.0673 294.225L76.1564 295.014C76.0679 295.038 75.9752 295.042 75.885 295.026C75.7948 295.009 75.7094 294.973 75.6352 294.919Z" fill="#3D3D5C"/>
<path d="M70.2163 326.81L68.5406 326.809L67.7429 320.344H70.2169L70.2163 326.81Z" fill="#A0616A"/>
<path d="M66.9688 326.33H70.5758V328.366H65.3077V327.991C65.3077 327.773 65.3507 327.557 65.4342 327.356C65.5176 327.154 65.64 326.971 65.7942 326.817C65.9485 326.663 66.1316 326.54 66.3331 326.457C66.5347 326.373 66.7507 326.33 66.9688 326.33Z" fill="#2F2E41"/>
<path d="M76.5056 326.81L74.8299 326.809L74.0322 320.344H76.5063L76.5056 326.81Z" fill="#A0616A"/>
<path d="M73.2581 326.33H76.8651V328.366H71.597V327.991C71.597 327.773 71.64 327.557 71.7235 327.356C71.8069 327.154 71.9293 326.971 72.0835 326.817C72.2378 326.663 72.4209 326.54 72.6224 326.457C72.824 326.373 73.04 326.33 73.2581 326.33Z" fill="#2F2E41"/>
<path d="M70.1375 323.552L68.2922 323.464C68.135 323.457 67.9867 323.389 67.8777 323.276C67.7687 323.162 67.7073 323.011 67.7062 322.854C67.2197 315.345 66.546 307.294 67.5774 304.183C67.5768 304.095 67.5954 304.007 67.6318 303.926C67.6682 303.846 67.7217 303.774 67.7885 303.715C67.8553 303.657 67.9339 303.614 68.0189 303.589C68.1039 303.564 68.1934 303.557 68.2811 303.57L75.6633 304.642C75.8091 304.662 75.9427 304.735 76.0395 304.846C76.1363 304.957 76.1898 305.099 76.1902 305.246C77.1326 308.929 77.1753 315.607 77.1396 322.546C77.1402 322.628 77.1248 322.708 77.0941 322.783C77.0635 322.858 77.0182 322.927 76.961 322.984C76.9039 323.042 76.8358 323.088 76.7609 323.119C76.6859 323.15 76.6055 323.166 76.5243 323.166H74.535C74.3882 323.167 74.2461 323.115 74.1346 323.019C74.023 322.924 73.9494 322.792 73.9272 322.647L72.6999 314.844C72.6819 314.73 72.6233 314.626 72.5348 314.552C72.4462 314.478 72.3338 314.438 72.2183 314.44C72.1027 314.442 71.9919 314.486 71.9062 314.564C71.8205 314.641 71.7657 314.747 71.752 314.862L70.7777 323.011C70.7593 323.16 70.6871 323.298 70.5746 323.397C70.4621 323.497 70.3171 323.553 70.1667 323.553C70.157 323.553 70.1473 323.553 70.1375 323.552Z" fill="#2F2E41"/>
<path d="M71.4364 305.247C70.3589 304.614 69.1647 304.205 67.9253 304.044C67.8439 304.037 67.7649 304.012 67.6931 303.973C67.6213 303.934 67.5583 303.88 67.5078 303.816C67.4562 303.751 67.4184 303.676 67.3965 303.596C67.3746 303.516 67.3692 303.433 67.3805 303.351L69.1494 290.218C69.2512 289.45 69.548 288.72 70.0114 288.099C70.4748 287.478 71.0894 286.986 71.7969 286.669C72.4816 286.354 73.2356 286.22 73.9869 286.279C74.7382 286.338 75.462 286.588 76.0894 287.006C76.15 287.046 76.2095 287.087 76.2678 287.129C76.9903 287.659 77.5399 288.39 77.8473 289.231C78.1548 290.072 78.2064 290.986 77.9955 291.856C76.9108 296.294 76.5382 303.568 76.4745 304.982C76.4695 305.102 76.429 305.218 76.358 305.316C76.287 305.413 76.1887 305.487 76.0756 305.529C75.4082 305.772 74.7039 305.897 73.9939 305.9C73.0995 305.905 72.2188 305.68 71.4364 305.247Z" fill="#3D3D5C"/>
<path d="M72.9159 284.886C74.7706 284.886 76.274 283.383 76.274 281.528C76.274 279.673 74.7706 278.17 72.9159 278.17C71.0613 278.17 69.5579 279.673 69.5579 281.528C69.5579 283.383 71.0613 284.886 72.9159 284.886Z" fill="#A0616A"/>
<path d="M75.2923 284.185C75.1519 284.336 74.9712 284.444 74.7715 284.497C74.5717 284.549 74.3612 284.543 74.1646 284.48C73.9681 284.416 73.7937 284.298 73.6619 284.139C73.5302 283.98 73.4465 283.787 73.4208 283.582C73.4144 283.511 73.4149 283.44 73.4222 283.37C73.5445 282.981 73.6183 282.579 73.6418 282.173C73.6291 282.067 73.5896 281.965 73.5269 281.879C73.0277 281.21 71.8558 282.178 71.3847 281.573C71.0958 281.202 71.4354 280.617 71.2137 280.203C70.9211 279.655 70.0544 279.925 69.5109 279.626C68.9062 279.292 68.9424 278.364 69.3405 277.8C69.5995 277.466 69.929 277.194 70.3053 277.003C70.6816 276.811 71.0955 276.705 71.5176 276.692C72.3626 276.672 73.202 276.835 73.9775 277.172C74.8935 277.47 75.7018 278.03 76.3019 278.783C76.6125 279.277 76.8093 279.834 76.8781 280.413C76.9469 280.993 76.8859 281.58 76.6997 282.133C76.3713 282.904 75.8929 283.601 75.2923 284.185Z" fill="#2F2E41"/>
<path d="M77.9518 287.45C77.893 287.173 77.3885 286.796 76.6666 286.488C75.5063 286.018 74.2513 285.829 73.0039 285.936C71.7566 286.043 70.5521 286.443 69.4886 287.104C69.4144 287.108 69.3436 287.136 69.287 287.184C69.2305 287.232 69.1913 287.298 69.1755 287.37L66.7473 298.11L66.4314 299.509L66.2223 300.434L65.9064 301.829L65.7383 302.574C65.7275 302.622 65.7271 302.671 65.7369 302.719C65.7468 302.767 65.7668 302.812 65.7955 302.851C65.8243 302.891 65.8611 302.924 65.9036 302.948C65.9461 302.972 65.9932 302.987 66.0418 302.991L76.5272 303.896C76.5367 303.896 76.5477 303.897 76.5572 303.897C76.6438 303.897 76.7269 303.864 76.7898 303.804C76.8527 303.745 76.8908 303.664 76.8963 303.578L76.9961 302.059L77.1028 300.434L77.1493 299.73L77.2546 298.11L77.9532 287.467V287.458L77.9518 287.45Z" fill="#2D2D86"/>
<path d="M60.747 288.126C60.7638 288.199 60.7747 288.274 60.7797 288.35L66.653 291.738L68.0806 290.916L69.6025 292.909L66.5485 295.085L59.848 289.799C59.5747 289.9 59.2771 289.916 58.9947 289.844C58.7124 289.772 58.4587 289.615 58.2674 289.395C58.0761 289.176 57.9563 288.903 57.9238 288.613C57.8914 288.324 57.9479 288.031 58.0858 287.774C58.2237 287.518 58.4364 287.309 58.6958 287.176C58.9552 287.043 59.2488 286.993 59.5377 287.031C59.8266 287.069 60.097 287.194 60.3131 287.39C60.5291 287.585 60.6804 287.842 60.747 288.126Z" fill="#A0616A"/>
<path d="M66.8629 291.45C66.8531 291.359 66.8639 291.267 66.8945 291.18C66.9251 291.094 66.9747 291.015 67.0397 290.951L70.0289 287.961C70.3251 287.664 70.7205 287.488 71.1388 287.466C71.5571 287.444 71.9687 287.578 72.2943 287.842C72.6198 288.105 72.8363 288.48 72.9019 288.894C72.9676 289.307 72.8777 289.731 72.6497 290.082L70.5209 293.362C70.4319 293.499 70.2924 293.595 70.1328 293.629C69.9733 293.663 69.8068 293.632 69.6699 293.543L67.1399 291.902C67.0629 291.852 66.998 291.785 66.9501 291.707C66.9021 291.629 66.8723 291.541 66.8629 291.45Z" fill="#3D3D5C"/>
<path d="M77.2543 298.11L77.1494 299.73L66.431 299.509L66.747 298.11H77.2543Z" fill="#CCCCCC"/>
<path d="M77.1027 300.434L76.9959 302.058L65.9064 301.829L66.2224 300.434H77.1027Z" fill="#CCCCCC"/>
<path d="M72.9818 275.004C71.8453 275.004 70.7534 275.446 69.9374 276.237C69.1214 277.028 68.6454 278.106 68.6101 279.242H67.7863C67.7137 279.242 67.6442 279.271 67.5929 279.322C67.5416 279.373 67.5128 279.443 67.5128 279.515V280.609C67.5128 280.682 67.5416 280.751 67.5929 280.803C67.6442 280.854 67.7137 280.883 67.7863 280.883H77.0835C77.156 280.883 77.2256 280.854 77.2769 280.803C77.3281 280.751 77.357 280.682 77.357 280.609V279.379C77.357 278.804 77.2438 278.235 77.0239 277.704C76.8041 277.174 76.4818 276.691 76.0755 276.285C75.6692 275.879 75.1869 275.556 74.6561 275.337C74.1253 275.117 73.5563 275.004 72.9818 275.004Z" fill="#2D2D86"/>
<path d="M97.6057 319.515H96.6679C96.6619 319.401 95.403 316.447 95.403 316.447L94.6419 314.606L94.1389 313.379L93.3779 311.538L92.5066 309.421C92.4843 309.325 92.4304 309.24 92.3535 309.179C92.2767 309.118 92.1814 309.085 92.0833 309.085C91.9852 309.085 91.8899 309.118 91.8131 309.179C91.7362 309.24 91.6822 309.325 91.6599 309.421L90.7887 311.538L90.0277 313.379L89.5246 314.606L88.7636 316.447C88.7636 316.447 87.5047 319.401 87.4987 319.515H86.5609C86.3168 319.515 86.0827 319.612 85.9101 319.784C85.7375 319.957 85.6405 320.191 85.6405 320.435C85.6405 320.679 85.7375 320.913 85.9101 321.086C86.0827 321.258 86.3168 321.355 86.5609 321.355H97.6057C97.8498 321.355 98.0839 321.258 98.2565 321.086C98.4291 320.913 98.5261 320.679 98.5261 320.435C98.5261 320.191 98.4291 319.957 98.2565 319.784C98.0839 319.612 97.8498 319.515 97.6057 319.515Z" fill="#FF6584"/>
<path d="M96.9921 335.468H96.6286C96.6619 335.39 95.047 331.259 95.047 331.259L94.0775 328.896L93.427 327.313L92.4575 324.951L91.4023 322.392C91.3726 322.271 91.3032 322.164 91.2053 322.087C91.1074 322.011 90.9866 321.969 90.8622 321.969C90.7378 321.969 90.617 322.011 90.5191 322.087C90.4212 322.164 90.3519 322.271 90.3222 322.392L89.2669 324.951L88.2974 327.313L87.6407 328.896L86.6714 331.259C86.6714 331.259 85.0625 335.39 85.0958 335.468H84.7201C84.476 335.468 84.2419 335.565 84.0693 335.738C83.8966 335.91 83.7997 336.144 83.7997 336.388C83.7997 336.633 83.8966 336.867 84.0693 337.039C84.2419 337.212 84.476 337.309 84.7201 337.309H96.9921C97.2362 337.309 97.4703 337.212 97.6429 337.039C97.8155 336.867 97.9125 336.633 97.9125 336.388C97.9125 336.144 97.8155 335.91 97.6429 335.738C97.4703 335.565 97.2362 335.468 96.9921 335.468Z" fill="#FF6584"/>
<path d="M94.1387 313.379H90.0276L90.7884 311.538H93.3778L94.1387 313.379Z" fill="#F2F2F2"/>
<path d="M95.4027 316.447H88.7635L89.5244 314.606H94.6418L95.4027 316.447Z" fill="#F2F2F2"/>
<path d="M93.4269 327.313H88.2972L89.2667 324.951H92.4574L93.4269 327.313Z" fill="#F2F2F2"/>
<path d="M95.0468 331.259H86.6711L87.6406 328.896H94.0773L95.0468 331.259Z" fill="#F2F2F2"/>
<path d="M232.404 284.384C232.499 284.29 232.572 284.177 232.618 284.052C232.664 283.927 232.682 283.793 232.671 283.66C232.66 283.527 232.62 283.399 232.554 283.283C232.488 283.167 232.397 283.067 232.288 282.991L231.828 279.956L229.937 280.551L230.973 283.259C230.856 283.45 230.813 283.678 230.853 283.899C230.893 284.119 231.012 284.318 231.189 284.457C231.365 284.595 231.586 284.665 231.81 284.651C232.034 284.638 232.245 284.542 232.404 284.384Z" fill="#FFB8B8"/>
<path d="M230.456 282.956L229.289 277.508C229.176 276.986 229.198 276.444 229.354 275.933C229.51 275.423 229.795 274.96 230.18 274.591C231.673 273.152 233.592 271.339 234.255 270.87C234.877 270.426 235.63 270.204 236.393 270.238L236.409 270.24L237.413 271.188L235.227 274.787L231.909 276.866L232.278 282.205L230.456 282.956Z" fill="#2D2D86"/>
<path d="M234.541 275.553H229.646C229.434 275.553 229.262 275.725 229.262 275.937C229.262 276.149 229.434 276.321 229.646 276.321H234.541C234.753 276.321 234.925 276.149 234.925 275.937C234.925 275.725 234.753 275.553 234.541 275.553Z" fill="#CCCCCC"/>
<path d="M234.541 283.903H229.646C229.434 283.903 229.262 284.075 229.262 284.287C229.262 284.499 229.434 284.671 229.646 284.671H234.541C234.753 284.671 234.925 284.499 234.925 284.287C234.925 284.075 234.753 283.903 234.541 283.903Z" fill="#CCCCCC"/>
<path d="M232.141 304.827C232.093 304.827 232.047 304.809 232.012 304.777C231.976 304.744 231.955 304.7 231.95 304.652L229.503 275.954C229.501 275.929 229.504 275.903 229.511 275.879C229.519 275.855 229.531 275.833 229.547 275.813C229.563 275.794 229.583 275.778 229.605 275.766C229.628 275.754 229.652 275.747 229.677 275.745C229.702 275.743 229.728 275.746 229.752 275.753C229.776 275.761 229.798 275.773 229.818 275.789C229.837 275.805 229.853 275.825 229.865 275.848C229.876 275.87 229.883 275.895 229.886 275.92L232.139 302.435L234.328 275.92C234.33 275.895 234.337 275.871 234.349 275.848C234.36 275.826 234.376 275.806 234.395 275.789C234.415 275.773 234.437 275.761 234.461 275.753C234.485 275.745 234.51 275.743 234.536 275.745C234.561 275.747 234.585 275.754 234.608 275.766C234.63 275.777 234.65 275.793 234.666 275.813C234.683 275.832 234.695 275.854 234.702 275.879C234.71 275.903 234.713 275.928 234.71 275.953L232.333 304.652C232.329 304.7 232.307 304.744 232.271 304.777C232.236 304.809 232.189 304.827 232.141 304.827Z" fill="#CCCCCC"/>
<path d="M237.635 269.09C239.026 269.09 240.153 267.962 240.153 266.571C240.153 265.181 239.026 264.053 237.635 264.053C236.244 264.053 235.117 265.181 235.117 266.571C235.117 267.962 236.244 269.09 237.635 269.09Z" fill="#FFB8B8"/>
<path d="M230.129 303.676L228.932 303.295L229.834 298.493L231.602 299.057L230.129 303.676Z" fill="#FFB8B8"/>
<path d="M230.063 304.739L226.207 303.51L226.239 303.41C226.362 303.026 226.631 302.708 226.989 302.523C227.346 302.338 227.762 302.303 228.145 302.425L230.555 303.193L230.063 304.739Z" fill="#2F2E41"/>
<path d="M238.844 303.651H237.586L236.988 298.802H238.844V303.651Z" fill="#FFB8B8"/>
<path d="M235.21 304.771H239.065V303.34H236.631C236.255 303.341 235.893 303.491 235.627 303.757C235.36 304.024 235.21 304.385 235.21 304.762V304.771Z" fill="#2F2E41"/>
<path d="M238.807 302.078L238.382 302.015C237.849 301.983 237.323 301.884 236.814 301.722C236.71 301.676 236.702 300.983 236.765 297.09C236.811 294.232 236.868 290.676 236.757 288.766C236.753 288.691 236.723 288.619 236.673 288.563C236.622 288.507 236.555 288.469 236.48 288.456C236.406 288.443 236.329 288.455 236.263 288.491C236.196 288.527 236.144 288.584 236.114 288.653C235.156 290.864 233.55 295.812 232.487 299.086C232.117 300.225 231.825 301.125 231.64 301.664C231.605 301.766 231.532 301.851 231.437 301.903C231.342 301.954 231.231 301.968 231.127 301.942C230.252 301.724 230.31 301.631 229.064 301.309C228.957 301.281 228.864 301.213 228.805 301.118C228.746 301.024 228.726 300.91 228.749 300.802C228.975 299.739 233.099 282.508 233.414 280.87C233.425 280.813 233.447 280.76 233.478 280.712C233.51 280.665 233.55 280.624 233.598 280.592C233.645 280.56 233.698 280.538 233.754 280.527C233.81 280.516 233.868 280.516 233.924 280.527C234.852 280.714 235.417 280.912 236.335 281.104C237.325 281.311 238.348 281.525 239.347 281.725C239.446 281.745 239.536 281.8 239.598 281.879C239.877 282.177 240.219 282.407 240.6 282.552C240.861 282.677 240.269 282.666 240.497 282.846C241.419 283.576 240.092 298.404 239.291 301.752C239.265 301.857 239.201 301.949 239.112 302.009C239.022 302.069 238.913 302.094 238.807 302.078Z" fill="#2F2E41"/>
<path d="M238.708 268.775C238.561 268.151 239.305 266.809 239.158 266.185C239.058 265.762 238.064 266.05 237.833 265.683C237.725 265.493 237.572 265.334 237.389 265.217C237.205 265.1 236.995 265.03 236.778 265.013C236.279 265.008 235.788 265.378 235.316 265.218C235.204 265.163 235.104 265.085 235.023 264.991C234.941 264.897 234.879 264.787 234.84 264.669C234.801 264.55 234.786 264.425 234.795 264.3C234.805 264.176 234.84 264.055 234.897 263.944C235.15 263.503 235.542 263.158 236.013 262.965C236.754 262.512 237.641 262.363 238.489 262.549C238.975 262.737 239.42 263.016 239.8 263.372C240.181 263.654 240.516 263.994 240.792 264.38C241.027 264.781 241.154 265.237 241.162 265.702C241.169 266.167 241.056 266.626 240.835 267.035C240.376 267.852 239.645 268.481 238.769 268.813" fill="#2F2E41"/>
<path d="M232.525 283.294C232.796 282.84 233.209 280.712 233.718 277.141C234.064 274.703 234.366 272.226 234.516 270.961C234.528 270.859 234.565 270.761 234.625 270.677C234.685 270.593 234.765 270.525 234.858 270.481C234.955 270.434 235.052 270.39 235.148 270.348C236.301 269.82 237.581 269.633 238.837 269.81C240.093 269.986 241.272 270.518 242.235 271.344L242.246 271.354L242.249 271.369C242.255 271.397 242.775 274.201 241.71 276.094C240.659 277.963 240.646 282.912 240.646 282.961V283.025L240.585 283.008C238.95 282.54 232.636 283.358 232.572 283.366L232.474 283.379L232.525 283.294Z" fill="#2D2D86"/>
<path d="M242.028 276.801H237.132C236.92 276.801 236.749 276.973 236.749 277.185C236.749 277.397 236.92 277.569 237.132 277.569H242.028C242.24 277.569 242.411 277.397 242.411 277.185C242.411 276.973 242.24 276.801 242.028 276.801Z" fill="#CCCCCC"/>
<path d="M242.028 285.151H237.132C236.92 285.151 236.749 285.323 236.749 285.535C236.749 285.747 236.92 285.919 237.132 285.919H242.028C242.24 285.919 242.411 285.747 242.411 285.535C242.411 285.323 242.24 285.151 242.028 285.151Z" fill="#CCCCCC"/>
<path d="M239.628 304.923C239.58 304.923 239.534 304.905 239.499 304.873C239.463 304.84 239.441 304.796 239.437 304.748L236.99 277.202C236.985 277.151 237.001 277.1 237.034 277.061C237.066 277.022 237.113 276.998 237.164 276.993C237.215 276.989 237.265 277.005 237.304 277.037C237.343 277.07 237.368 277.117 237.372 277.168L239.625 302.531L241.814 277.168C241.817 277.143 241.824 277.118 241.835 277.096C241.847 277.073 241.863 277.053 241.882 277.037C241.901 277.021 241.924 277.008 241.948 277.001C241.972 276.993 241.997 276.99 242.022 276.993C242.048 276.995 242.072 277.002 242.094 277.013C242.117 277.025 242.137 277.041 242.153 277.061C242.169 277.08 242.181 277.102 242.189 277.126C242.197 277.151 242.199 277.176 242.197 277.201L239.819 304.748C239.815 304.796 239.793 304.84 239.758 304.873C239.723 304.905 239.676 304.923 239.628 304.923Z" fill="#CCCCCC"/>
<path d="M238.048 285.273C238.019 285.143 238.019 285.008 238.048 284.878C238.077 284.748 238.135 284.625 238.216 284.52C238.298 284.414 238.401 284.328 238.519 284.267C238.638 284.206 238.768 284.171 238.901 284.166L240.937 281.868L242.201 283.396L239.86 285.106C239.854 285.33 239.766 285.544 239.613 285.708C239.46 285.872 239.251 285.974 239.028 285.994C238.805 286.015 238.581 285.953 238.401 285.82C238.22 285.687 238.094 285.492 238.048 285.273Z" fill="#FFB8B8"/>
<path d="M239.233 283.673L242.444 279.392L240.788 275.843L240.908 271.635L242.266 271.384L242.28 271.391C242.94 271.777 243.451 272.373 243.732 273.083C244.034 273.837 244.659 276.402 245.131 278.421C245.254 278.941 245.242 279.484 245.095 279.997C244.949 280.511 244.673 280.978 244.294 281.354L240.354 285.294L239.233 283.673Z" fill="#2D2D86"/>
<path d="M225.771 303.733L230.165 304.79C230.25 304.813 230.34 304.805 230.42 304.768C230.5 304.73 230.564 304.666 230.602 304.586L234.376 294.552C234.392 294.514 234.401 294.472 234.401 294.43C234.401 294.388 234.393 294.346 234.376 294.308C234.357 294.264 234.329 294.225 234.295 294.193C234.26 294.161 234.22 294.136 234.175 294.12L230.872 292.858C230.82 292.838 230.764 292.829 230.708 292.833C230.652 292.836 230.598 292.85 230.548 292.876C230.505 292.897 230.467 292.928 230.436 292.965C230.406 293.002 230.384 293.046 230.371 293.092L228.04 301.936L228.005 301.938C227.282 301.981 226.594 302.268 226.054 302.752C225.942 302.887 225.859 303.044 225.81 303.213C225.762 303.381 225.748 303.558 225.771 303.733Z" fill="#CCCCCC"/>
<path d="M228.953 298.108L228.933 298.299L232.938 298.723L232.959 298.532L228.953 298.108Z" fill="#B3B3B3"/>
<path d="M228.604 299.689L228.525 299.864L231.748 301.315L231.827 301.139L228.604 299.689Z" fill="#B3B3B3"/>
<path d="M233.38 297.188L229.581 295.929L229.66 295.754L233.459 297.012L233.38 297.188Z" fill="#B3B3B3"/>
<path d="M233.764 296.324L229.965 294.49L230.043 294.314L233.843 296.148L233.764 296.324Z" fill="#B3B3B3"/>
<path d="M228.269 301.192L228.144 301.338L230.883 303.678L231.008 303.532L228.269 301.192Z" fill="#B3B3B3"/>
<path d="M227.491 301.968L227.316 302.047L228.416 304.473L228.591 304.393L227.491 301.968Z" fill="#B3B3B3"/>
<path d="M334.563 285.187C334.4 285.149 334.248 285.076 334.116 284.973C333.985 284.87 333.877 284.739 333.802 284.59C333.726 284.441 333.684 284.277 333.679 284.11C333.674 283.943 333.705 283.777 333.771 283.624L329.556 274.102L331.967 273.495L335.352 283.045C335.602 283.173 335.798 283.388 335.9 283.65C336.003 283.912 336.006 284.202 335.909 284.467C335.812 284.731 335.621 284.95 335.373 285.083C335.125 285.215 334.837 285.253 334.563 285.187Z" fill="#A0616A"/>
<path d="M330.338 277.086C330.271 277.056 330.211 277.011 330.163 276.956C330.114 276.901 330.078 276.835 330.057 276.765L329.32 274.3C329.159 273.958 329.14 273.567 329.268 273.212C329.395 272.856 329.659 272.566 330 272.405C330.342 272.244 330.733 272.225 331.089 272.353C331.444 272.48 331.734 272.744 331.895 273.085L333.32 275.237C333.361 275.299 333.388 275.368 333.399 275.441C333.411 275.514 333.406 275.588 333.386 275.659C333.366 275.73 333.331 275.796 333.284 275.852C333.236 275.908 333.177 275.953 333.11 275.985L330.765 277.082C330.699 277.113 330.626 277.13 330.552 277.13C330.479 277.131 330.406 277.116 330.338 277.086Z" fill="#2D2D86"/>
<path d="M338.917 275.858L336.332 277.688C336.299 277.712 336.259 277.725 336.219 277.725C336.178 277.725 336.138 277.712 336.105 277.688L335.406 277.163C335.383 277.146 335.364 277.124 335.35 277.099C335.337 277.074 335.329 277.045 335.328 277.017C335.327 276.988 335.332 276.959 335.343 276.933C335.355 276.906 335.372 276.883 335.394 276.864L337.383 275.09C337.409 275.067 337.441 275.052 337.475 275.045C337.509 275.039 337.544 275.041 337.577 275.053L338.871 275.516C338.904 275.528 338.934 275.549 338.956 275.577C338.978 275.605 338.992 275.638 338.997 275.673C339.002 275.708 338.997 275.744 338.983 275.776C338.969 275.809 338.946 275.837 338.917 275.858Z" fill="#3D3D5C"/>
<path d="M338.707 275.684C338.713 275.667 338.713 275.648 338.705 275.631C338.698 275.615 338.684 275.602 338.667 275.595L337.501 275.178C337.489 275.174 337.477 275.173 337.465 275.175C337.453 275.177 337.441 275.183 337.432 275.191L335.638 276.791L335.628 276.801C335.623 276.809 335.619 276.817 335.617 276.825C335.615 276.834 335.615 276.843 335.616 276.851C335.618 276.86 335.621 276.868 335.625 276.876C335.63 276.883 335.636 276.89 335.643 276.895L336.272 277.366C336.283 277.375 336.298 277.38 336.312 277.38C336.327 277.379 336.341 277.375 336.353 277.366L338.682 275.716C338.694 275.708 338.702 275.697 338.707 275.684Z" fill="white"/>
<path d="M329.496 303.143H330.801L331.422 298.111H329.496V303.143Z" fill="#A0616A"/>
<path d="M329.163 302.717L331.733 302.717C331.948 302.717 332.161 302.759 332.359 302.842C332.558 302.924 332.738 303.045 332.89 303.197C333.043 303.349 333.163 303.529 333.245 303.728C333.328 303.926 333.37 304.139 333.37 304.354V304.408L329.163 304.408L329.163 302.717Z" fill="#2F2E41"/>
<path d="M325.133 303.143H326.438L327.058 298.111H325.133V303.143Z" fill="#A0616A"/>
<path d="M324.8 302.717L327.37 302.717C327.585 302.717 327.798 302.759 327.996 302.842C328.195 302.924 328.375 303.045 328.527 303.197C328.68 303.349 328.8 303.529 328.882 303.728C328.965 303.926 329.007 304.139 329.007 304.354V304.408L324.8 304.408L324.8 302.717Z" fill="#2F2E41"/>
<path d="M324.856 301.605C324.767 301.503 324.717 301.372 324.715 301.236C324.404 298.037 325.25 281.217 327.205 279.781L327.217 279.769L332.94 278.781L333.047 278.888C333.055 279.036 334.095 293.779 331.222 301.303C331.187 301.393 331.126 301.47 331.046 301.524C330.967 301.578 330.872 301.607 330.776 301.607H329.634C329.568 301.607 329.502 301.594 329.442 301.567C329.381 301.541 329.327 301.502 329.282 301.454C329.237 301.405 329.203 301.348 329.181 301.286C329.16 301.223 329.151 301.157 329.156 301.091L330.081 287.002C330.084 286.962 330.072 286.922 330.047 286.89C330.022 286.859 329.985 286.838 329.945 286.832C329.905 286.826 329.865 286.835 329.831 286.859C329.798 286.882 329.775 286.916 329.766 286.956L327.161 301.255C327.139 301.356 327.085 301.447 327.007 301.514C326.929 301.582 326.831 301.623 326.729 301.631L325.228 301.742C325.216 301.743 325.205 301.743 325.193 301.743C325.067 301.743 324.946 301.694 324.856 301.605Z" fill="#2F2E41"/>
<path d="M332.387 270.157C333.83 270.157 335 268.987 335 267.543C335 266.1 333.83 264.929 332.387 264.929C330.943 264.929 329.773 266.1 329.773 267.543C329.773 268.987 330.943 270.157 332.387 270.157Z" fill="#A0616A"/>
<path d="M326.091 282.07C325.981 281.958 325.917 281.807 325.914 281.65L326.981 276.653C326.13 273.035 327.263 272.357 328.542 271.671L328.534 271.667L329.068 270.221C329.085 270.157 329.116 270.097 329.159 270.046C329.202 269.995 329.255 269.954 329.315 269.926C329.376 269.898 329.442 269.884 329.508 269.884C329.575 269.885 329.64 269.9 329.7 269.928L332.424 271.376C332.547 271.445 332.638 271.559 332.677 271.694C332.723 271.837 332.72 271.992 332.668 272.133L332.467 272.678C332.987 273.373 333.792 276.121 332.94 277.185L333.583 280.731C333.597 280.862 333.564 280.993 333.492 281.102C333.419 281.211 333.31 281.291 333.184 281.328L326.471 282.19C326.445 282.195 326.419 282.198 326.392 282.198C326.279 282.196 326.171 282.15 326.091 282.07Z" fill="#2D2D86"/>
<path d="M335.863 276.339C335.82 276.38 335.781 276.423 335.745 276.47L330.48 276.106L329.915 274.955L328.066 275.581L328.868 277.715C328.933 277.888 329.052 278.035 329.207 278.134C329.363 278.233 329.546 278.279 329.73 278.265L335.717 277.811C335.849 277.995 336.035 278.134 336.248 278.21C336.462 278.287 336.694 278.296 336.913 278.237C337.132 278.178 337.328 278.054 337.475 277.881C337.621 277.708 337.712 277.495 337.735 277.269C337.757 277.043 337.71 276.816 337.601 276.617C337.491 276.419 337.323 276.259 337.12 276.158C336.917 276.057 336.688 276.02 336.463 276.053C336.239 276.085 336.029 276.185 335.863 276.339Z" fill="#A0616A"/>
<path d="M330.283 276.125L327.989 276.889C327.923 276.91 327.854 276.918 327.786 276.91C327.717 276.903 327.651 276.881 327.592 276.846C327.533 276.81 327.482 276.763 327.443 276.706C327.404 276.649 327.378 276.585 327.366 276.517L326.947 274.143C326.838 273.808 326.866 273.443 327.025 273.129C327.184 272.815 327.461 272.576 327.795 272.466C328.13 272.356 328.494 272.383 328.809 272.541C329.123 272.699 329.362 272.976 329.474 273.31L330.559 275.454C330.59 275.515 330.608 275.583 330.61 275.652C330.613 275.72 330.601 275.789 330.575 275.853C330.549 275.916 330.509 275.973 330.459 276.02C330.408 276.067 330.349 276.103 330.283 276.125Z" fill="#2D2D86"/>
<path d="M330.918 265.479C332.094 265.479 333.047 264.526 333.047 263.351C333.047 262.176 332.094 261.223 330.918 261.223C329.743 261.223 328.79 262.176 328.79 263.351C328.79 264.526 329.743 265.479 330.918 265.479Z" fill="#2F2E41"/>
<path d="M334.861 267.866C335.067 267.908 335.281 267.89 335.477 267.815C335.577 267.758 335.662 267.678 335.726 267.582C335.789 267.487 335.829 267.377 335.843 267.263C336.239 264.628 333.999 264.845 333.734 264.731C333.567 264.633 333.41 264.518 333.265 264.389C332.892 264.182 332.467 264.088 332.041 264.119C331.538 264.073 331.031 264.135 330.554 264.301C330.138 264.496 329.793 264.814 329.565 265.213C329.34 265.609 329.174 266.037 329.075 266.483C328.918 266.986 328.889 267.521 328.991 268.039C329.1 268.426 329.327 268.768 329.641 269.02C329.954 269.271 330.338 269.417 330.739 269.44C330.674 269.13 330.714 268.807 330.851 268.522C330.989 268.237 331.216 268.005 331.499 267.862C331.948 267.641 332.459 267.58 332.948 267.689C333.265 267.754 333.586 267.794 333.909 267.809C334.226 267.821 334.606 267.839 334.861 267.866Z" fill="#2F2E41"/>
<path d="M539.412 303.662C539.414 300.87 540.524 298.193 542.5 296.22C544.475 294.246 547.152 293.138 549.944 293.138C552.736 293.138 555.414 294.246 557.389 296.22C559.364 298.193 560.475 300.87 560.477 303.662" fill="#F2F2F2"/>
<path d="M549.944 303.662C549.869 303.662 549.796 303.632 549.743 303.579C549.69 303.526 549.66 303.453 549.66 303.378V297.827C549.66 297.751 549.69 297.679 549.743 297.625C549.796 297.572 549.869 297.542 549.944 297.542C550.02 297.542 550.092 297.572 550.146 297.625C550.199 297.679 550.229 297.751 550.229 297.827V303.378C550.229 303.453 550.199 303.526 550.146 303.579C550.092 303.632 550.02 303.662 549.944 303.662Z" fill="#CCCCCC"/>
<path d="M549.944 301.755C549.876 301.755 549.81 301.731 549.759 301.686L546.343 298.755C546.314 298.73 546.29 298.701 546.273 298.667C546.256 298.634 546.246 298.597 546.243 298.56C546.24 298.522 546.244 298.485 546.256 298.449C546.267 298.413 546.286 298.38 546.31 298.351C546.335 298.323 546.365 298.3 546.398 298.283C546.432 298.266 546.469 298.256 546.506 298.253C546.544 298.25 546.581 298.255 546.617 298.267C546.652 298.279 546.685 298.298 546.714 298.323L550.13 301.254C550.174 301.292 550.205 301.343 550.22 301.399C550.234 301.455 550.231 301.515 550.211 301.569C550.191 301.624 550.155 301.671 550.107 301.704C550.059 301.737 550.002 301.755 549.944 301.755Z" fill="#CCCCCC"/>
<path d="M571.864 303.662C571.866 300.87 572.977 298.193 574.952 296.22C576.927 294.246 579.604 293.138 582.396 293.138C585.188 293.138 587.866 294.246 589.841 296.22C591.816 298.193 592.927 300.87 592.929 303.662" fill="#F2F2F2"/>
<path d="M582.396 303.662C582.321 303.662 582.248 303.632 582.195 303.579C582.142 303.526 582.112 303.453 582.112 303.378V297.827C582.112 297.751 582.142 297.679 582.195 297.625C582.248 297.572 582.321 297.542 582.396 297.542C582.472 297.542 582.544 297.572 582.598 297.625C582.651 297.679 582.681 297.751 582.681 297.827V303.378C582.681 303.453 582.651 303.526 582.598 303.579C582.544 303.632 582.472 303.662 582.396 303.662Z" fill="#CCCCCC"/>
<path d="M582.396 301.755C582.328 301.755 582.262 301.731 582.211 301.686L578.795 298.755C578.766 298.73 578.742 298.701 578.725 298.667C578.708 298.634 578.698 298.597 578.695 298.56C578.691 298.522 578.696 298.485 578.708 298.449C578.719 298.413 578.738 298.38 578.762 298.351C578.787 298.323 578.817 298.299 578.85 298.282C578.884 298.266 578.921 298.255 578.958 298.253C578.996 298.25 579.033 298.255 579.069 298.267C579.105 298.279 579.138 298.298 579.166 298.323L582.582 301.254C582.626 301.292 582.657 301.343 582.672 301.399C582.687 301.455 582.684 301.515 582.663 301.569C582.643 301.624 582.607 301.671 582.559 301.704C582.511 301.737 582.454 301.755 582.396 301.755Z" fill="#CCCCCC"/>
<path d="M361.697 71.5979C363.991 74.1008 364.929 76.2039 368.606 76.2039" stroke="#0D0D16" stroke-width="3" stroke-linecap="round"/>
<path d="M370.141 68.5273V81.9614" stroke="#0D0D16" stroke-width="3" stroke-linecap="round"/>
<path d="M379.921 64.5439C378.011 64.5439 376.221 65.33 375.162 67.0219C374.397 68.2432 374.294 70.1076 374.753 71.4569C375.411 73.3879 377.539 73.6272 379.301 73.4281C381.134 73.221 383.905 72.6556 384.863 70.8234C385.571 69.4672 385.139 67.7104 384.215 66.5713C383.376 65.538 382.214 64.5788 380.836 64.5439C380.457 64.5343 380.134 64.4774 379.921 64.7973" stroke="#0D0D16" stroke-width="3" stroke-linecap="round"/>
</g>
<path d="M362.465 39.7399C369.244 44.2593 371.293 54.0465 371.293 61.6183" stroke="#86868A" stroke-width="3" stroke-linecap="round"/>
<path d="M361.313 38.9722C360.738 41.6319 360.162 44.6813 360.162 47.4165" stroke="#86868A" stroke-width="3" stroke-linecap="round"/>
<path d="M362.081 38.5884C365.011 38.5884 367.929 38.9722 370.909 38.9722" stroke="#86868A" stroke-width="3" stroke-linecap="round"/>
<path opacity="0.5" d="M386.13 59.3485C386.555 62.1949 389.591 64.3444 392.367 64.741C395.681 65.2145 396.114 60.9974 395.45 58.715C395.156 57.7033 394.542 57.0046 394.113 56.0821C393.98 55.7958 394.007 56.0018 394.099 56.1947C394.364 56.7549 394.748 57.2623 395.183 57.7012C397.081 59.6165 399.478 60.4767 402.096 59.7287" stroke="#0D0D16" stroke-width="3" stroke-linecap="round"/>
</g>
<defs>
<clipPath id="clip0_182_1777">
<rect width="600" height="337" fill="white"/>
</clipPath>
<clipPath id="clip1_182_1777">
<rect width="642.926" height="276.309" fill="white" transform="translate(-21 61)"/>
</clipPath>
</defs>
</svg>
