<svg width="128" height="128" viewBox="0 0 128 128" fill="none" xmlns="http://www.w3.org/2000/svg">
<rect width="128" height="128" fill="white"/>
<path fill-rule="evenodd" clip-rule="evenodd" d="M66.596 71.1062C80.1128 69.6025 90.68 56.478 90.68 40.5099C90.68 23.5327 78.735 9.7699 64 9.7699C49.265 9.7699 37.32 23.5327 37.32 40.5099C37.32 56.478 47.8873 69.6025 61.404 71.1062L59.9817 73.5699H68.0184L66.596 71.1062Z" fill="#FF2222"/>
<path d="M66.596 71.1062L66.4677 69.9534L64.7042 70.1496L65.5914 71.6862L66.596 71.1062ZM61.404 71.1062L62.4086 71.6862L63.2958 70.1496L61.5323 69.9534L61.404 71.1062ZM59.9817 73.5699L58.9771 72.9899L57.9725 74.7299H59.9817V73.5699ZM68.0184 73.5699V74.7299H70.0275L69.023 72.9899L68.0184 73.5699ZM89.52 40.5099C89.52 56.0152 79.2779 68.5282 66.4677 69.9534L66.7242 72.2591C80.9476 70.6767 91.84 56.9408 91.84 40.5099H89.52ZM64 10.9299C77.9455 10.9299 89.52 24.0136 89.52 40.5099H91.84C91.84 23.0517 79.5244 8.6099 64 8.6099V10.9299ZM38.48 40.5099C38.48 24.0136 50.0545 10.9299 64 10.9299V8.6099C48.4756 8.6099 36.16 23.0517 36.16 40.5099H38.48ZM61.5323 69.9534C48.7221 68.5282 38.48 56.0152 38.48 40.5099H36.16C36.16 56.9408 47.0524 70.6768 61.2758 72.2591L61.5323 69.9534ZM60.9862 74.1499L62.4086 71.6862L60.3994 70.5262L58.9771 72.9899L60.9862 74.1499ZM68.0184 72.4099H59.9817V74.7299H68.0184V72.4099ZM65.5914 71.6862L67.0138 74.1499L69.023 72.9899L67.6006 70.5262L65.5914 71.6862Z" fill="#262640"/>
<path d="M73.7993 19.6562C74.6575 21.3728 76.3828 22.5427 77.3811 24.1862C77.9876 25.1847 78.5788 26.2539 78.8999 27.3818C79.0768 28.0033 79.33 28.6429 79.33 29.2956" stroke="white" stroke-width="1.74" stroke-linecap="round"/>
<path d="M63.0098 118.834C63.3436 119.381 64.0574 119.554 64.6043 119.22C65.1512 118.886 65.3239 118.172 64.9902 117.626L63.0098 118.834ZM66.32 85.1699L67.4749 85.0608L66.32 85.1699ZM59.94 107.21L61.1 107.219L59.94 107.21ZM62.84 74.1499C62.84 76.651 63.36 78.4476 63.9015 80.1161C64.4403 81.7761 64.9727 83.2421 65.1652 85.279L67.4749 85.0608C67.2536 82.7192 66.626 80.9953 66.1082 79.3999C65.5932 77.813 65.16 76.2888 65.16 74.1499H62.84ZM58.7801 107.2C58.7601 109.636 59.8803 112.597 60.9029 114.821C61.4272 115.96 61.9514 116.959 62.3445 117.673C62.5413 118.031 62.7059 118.318 62.8221 118.517C62.8802 118.617 62.9262 118.695 62.9582 118.748C62.9741 118.775 62.9866 118.796 62.9953 118.81C62.9997 118.817 63.0031 118.823 63.0055 118.827C63.0067 118.829 63.0077 118.831 63.0084 118.832C63.0088 118.832 63.0091 118.833 63.0093 118.833C63.0094 118.834 63.0096 118.834 63.0096 118.834C63.0097 118.834 63.0098 118.834 64 118.23C64.9902 117.626 64.9903 117.626 64.9903 117.626C64.9903 117.626 64.9904 117.626 64.9904 117.626C64.9903 117.626 64.9903 117.626 64.9901 117.626C64.9899 117.625 64.9894 117.624 64.9886 117.623C64.9871 117.621 64.9846 117.616 64.9812 117.611C64.9744 117.6 64.9639 117.582 64.9499 117.559C64.9219 117.512 64.88 117.441 64.8262 117.349C64.7185 117.164 64.5635 116.894 64.3769 116.555C64.0032 115.876 63.5058 114.928 63.0107 113.851C61.9944 111.642 61.0846 109.093 61.1 107.219L58.7801 107.2ZM65.1652 85.279C65.5392 89.2374 64.1151 92.3094 62.4274 95.6529C60.7628 98.9505 58.8182 102.543 58.7801 107.2L61.1 107.219C61.1329 103.196 62.7866 100.09 64.4985 96.6983C66.1872 93.3528 67.9175 89.7453 67.4749 85.0608L65.1652 85.279Z" fill="#262640"/>
</svg>
