<svg width="100" height="100" viewBox="0 0 100 100" fill="none" xmlns="http://www.w3.org/2000/svg">
<rect width="100" height="100" fill="white"/>
<path fill-rule="evenodd" clip-rule="evenodd" d="M51.5665 54.2883C59.7232 53.3809 66.1 45.461 66.1 35.825C66.1 25.5801 58.8918 17.275 50 17.275C41.1082 17.275 33.9 25.5801 33.9 35.825C33.9 45.461 40.2768 53.3809 48.4335 54.2883L47.5751 55.775H52.4249L51.5665 54.2883Z" fill="#FF2222"/>
<path d="M51.5665 54.2883L51.4891 53.5926L50.4249 53.711L50.9603 54.6383L51.5665 54.2883ZM48.4335 54.2883L49.0397 54.6383L49.5751 53.711L48.5109 53.5926L48.4335 54.2883ZM47.5751 55.775L46.9689 55.425L46.3627 56.475H47.5751V55.775ZM52.4249 55.775V56.475H53.6373L53.0311 55.425L52.4249 55.775ZM65.4 35.825C65.4 45.1817 59.2194 52.7326 51.4891 53.5926L51.6439 54.984C60.227 54.0291 66.8 45.7402 66.8 35.825H65.4ZM50 17.975C58.4154 17.975 65.4 25.8704 65.4 35.825H66.8C66.8 25.2899 59.3682 16.575 50 16.575V17.975ZM34.6 35.825C34.6 25.8704 41.5846 17.975 50 17.975V16.575C40.6318 16.575 33.2 25.2899 33.2 35.825H34.6ZM48.5109 53.5926C40.7806 52.7326 34.6 45.1817 34.6 35.825H33.2C33.2 45.7402 39.773 54.0292 48.3561 54.984L48.5109 53.5926ZM48.1813 56.125L49.0397 54.6383L47.8272 53.9383L46.9689 55.425L48.1813 56.125ZM52.4249 55.075H47.5751V56.475H52.4249V55.075ZM50.9603 54.6383L51.8187 56.125L53.0311 55.425L52.1728 53.9383L50.9603 54.6383Z" fill="#262640"/>
<path d="M55.9133 23.241C56.4313 24.2768 57.4724 24.9828 58.0748 25.9746C58.4408 26.5771 58.7975 27.2223 58.9913 27.9029C59.098 28.278 59.2509 28.6639 59.2509 29.0578" stroke="white" stroke-width="1.05" stroke-linecap="round"/>
<path d="M49.4025 83.0896C49.6039 83.4196 50.0346 83.5239 50.3647 83.3225C50.6947 83.1211 50.7989 82.6904 50.5975 82.3604L49.4025 83.0896ZM51.4 62.775L52.0969 62.7091L51.4 62.775ZM47.55 76.075L48.25 76.0807L47.55 76.075ZM49.3 56.125C49.3 57.6343 49.6138 58.7185 49.9406 59.7253C50.2657 60.727 50.587 61.6117 50.7031 62.8408L52.0969 62.7091C51.9634 61.2962 51.5847 60.2558 51.2722 59.2931C50.9614 58.3355 50.7 57.4157 50.7 56.125H49.3ZM46.85 76.0693C46.838 77.5389 47.514 79.3261 48.1311 80.6677C48.4474 81.3555 48.7638 81.9583 49.001 82.3892C49.1197 82.6049 49.2191 82.7783 49.2892 82.8985C49.3242 82.9587 49.352 83.0056 49.3713 83.0378C49.3809 83.054 49.3885 83.0665 49.3937 83.0752C49.3963 83.0795 49.3984 83.0829 49.3999 83.0853C49.4006 83.0865 49.4012 83.0875 49.4016 83.0882C49.4018 83.0886 49.402 83.0889 49.4022 83.0891C49.4022 83.0892 49.4023 83.0894 49.4024 83.0894C49.4024 83.0895 49.4025 83.0896 50 82.725C50.5975 82.3604 50.5976 82.3604 50.5976 82.3605C50.5976 82.3605 50.5976 82.3605 50.5976 82.3605C50.5976 82.3605 50.5976 82.3604 50.5975 82.3603C50.5973 82.36 50.597 82.3595 50.5966 82.3588C50.5957 82.3573 50.5942 82.3548 50.5921 82.3514C50.588 82.3446 50.5817 82.3341 50.5732 82.3199C50.5563 82.2916 50.531 82.249 50.4986 82.1933C50.4336 82.0819 50.34 81.9186 50.2274 81.7141C50.0019 81.3044 49.7018 80.7323 49.403 80.0827C48.7897 78.7494 48.2407 77.2116 48.25 76.0807L46.85 76.0693ZM50.7031 62.8408C50.9288 65.2295 50.0694 67.0833 49.051 69.1009C48.0465 71.0909 46.873 73.2587 46.85 76.0693L48.25 76.0807C48.2699 73.6527 49.2678 71.7783 50.3008 69.7318C51.3198 67.7129 52.364 65.536 52.0969 62.7091L50.7031 62.8408Z" fill="#262640"/>
</svg>
