<svg width="100" height="100" viewBox="0 0 100 100" fill="none" xmlns="http://www.w3.org/2000/svg">
<path fill-rule="evenodd" clip-rule="evenodd" d="M52.2379 56.1262C63.8903 54.8298 73 43.5156 73 29.75C73 15.1145 62.7025 3.25 50 3.25C37.2975 3.25 27 15.1145 27 29.75C27 43.5156 36.1097 54.8298 47.7621 56.1262L46.5359 58.25H53.4641L52.2379 56.1262Z" fill="#FF2222"/>
<path d="M52.2379 56.1262L52.1273 55.1323L50.607 55.3014L51.3719 56.6262L52.2379 56.1262ZM47.7621 56.1262L48.6281 56.6262L49.393 55.3014L47.8727 55.1323L47.7621 56.1262ZM46.5359 58.25L45.6699 57.75L44.8038 59.25H46.5359V58.25ZM53.4641 58.25V59.25H55.1962L54.3301 57.75L53.4641 58.25ZM72 29.75C72 43.1167 63.1706 53.9037 52.1273 55.1323L52.3485 57.12C64.61 55.7559 74 43.9146 74 29.75H72ZM50 4.25C62.022 4.25 72 15.529 72 29.75H74C74 14.6999 63.3831 2.25 50 2.25V4.25ZM28 29.75C28 15.529 37.978 4.25 50 4.25V2.25C36.6169 2.25 26 14.6999 26 29.75H28ZM47.8727 55.1323C36.8294 53.9037 28 43.1167 28 29.75H26C26 43.9146 35.39 55.7559 47.6515 57.12L47.8727 55.1323ZM47.4019 58.75L48.6281 56.6262L46.8961 55.6262L45.6699 57.75L47.4019 58.75ZM53.4641 57.25H46.5359V59.25H53.4641V57.25ZM51.3719 56.6262L52.5981 58.75L54.3301 57.75L53.1039 55.6262L51.3719 56.6262Z" fill="#E9E9FC"/>
<path d="M58.4476 11.7728C59.1875 13.2526 60.6748 14.2611 61.5354 15.6779C62.0582 16.5387 62.5679 17.4604 62.8447 18.4327C62.9972 18.9685 63.2155 19.5198 63.2155 20.0825" stroke="#E9E9FC" stroke-width="1.5" stroke-linecap="round"/>
<path d="M49.1464 97.2709C49.4341 97.7424 50.0495 97.8913 50.5209 97.6036C50.9924 97.3159 51.1413 96.7005 50.8536 96.2291L49.1464 97.2709ZM52 68.25L52.9956 68.1559L52 68.25ZM46.5 87.25L47.5 87.2582L46.5 87.25ZM49 58.75C49 60.9061 49.4483 62.4549 49.9151 63.8933C50.3796 65.3243 50.8385 66.5881 51.0044 68.3441L52.9956 68.1559C52.8048 66.1374 52.2638 64.6512 51.8174 63.2759C51.3734 61.9078 51 60.5939 51 58.75H49ZM45.5 87.2418C45.4829 89.3413 46.4485 91.8944 47.3301 93.811C47.782 94.7935 48.234 95.6548 48.5728 96.2703C48.7425 96.5785 48.8844 96.8262 48.9845 96.9979C49.0346 97.0838 49.0743 97.1508 49.1018 97.1969C49.1156 97.22 49.1264 97.2378 49.1339 97.2503C49.1376 97.2565 49.1406 97.2613 49.1426 97.2648C49.1437 97.2665 49.1445 97.2679 49.1452 97.2689C49.1455 97.2694 49.1457 97.2698 49.1459 97.2702C49.146 97.2703 49.1462 97.2705 49.1462 97.2706C49.1463 97.2708 49.1464 97.2709 50 96.75C50.8536 96.2291 50.8537 96.2292 50.8537 96.2293C50.8537 96.2292 50.8537 96.2293 50.8537 96.2293C50.8537 96.2293 50.8537 96.2292 50.8535 96.229C50.8533 96.2286 50.8529 96.2279 50.8522 96.2268C50.8509 96.2247 50.8488 96.2212 50.8459 96.2163C50.84 96.2066 50.8309 96.1915 50.8189 96.1713C50.7947 96.1309 50.7586 96.07 50.7122 95.9904C50.6194 95.8313 50.4857 95.598 50.3249 95.3058C50.0027 94.7206 49.574 93.9033 49.1471 92.9753C48.2711 91.0706 47.4867 88.8737 47.5 87.2582L45.5 87.2418ZM51.0044 68.3441C51.3269 71.7564 50.0992 74.4047 48.6443 77.287C47.2093 80.1298 45.5329 83.2267 45.5 87.2418L47.5 87.2582C47.5284 83.7896 48.954 81.1118 50.4297 78.1883C51.8855 75.3042 53.3772 72.1943 52.9956 68.1559L51.0044 68.3441Z" fill="#E9E9FC"/>
</svg>
